<?xml version="1.0" encoding="UTF-8" standalone="no"?>
<!DOCTYPE svg PUBLIC "-//W3C//DTD SVG 1.1//EN"
 "http://www.w3.org/Graphics/SVG/1.1/DTD/svg11.dtd">
<!-- Generated by graphviz version 2.38.0 (20140413.2041)
 -->
<!-- Title: controllers_diagram Pages: 1 -->
<svg width="3619pt" height="337pt"
 viewBox="0.00 0.00 3619.13 337.00" xmlns="http://www.w3.org/2000/svg" xmlns:xlink="http://www.w3.org/1999/xlink">
<g id="graph0" class="graph" transform="scale(1 1) rotate(0) translate(4 333)">
<title>controllers_diagram</title>
<polygon fill="white" stroke="none" points="-4,4 -4,-333 3615.13,-333 3615.13,4 -4,4"/>
<!-- ApplicationController -->
<g id="node1" class="node"><title>ApplicationController</title>
<path fill="none" stroke="black" d="M12,-56.5C12,-56.5 190.635,-56.5 190.635,-56.5 196.635,-56.5 202.635,-62.5 202.635,-68.5 202.635,-68.5 202.635,-260.5 202.635,-260.5 202.635,-266.5 196.635,-272.5 190.635,-272.5 190.635,-272.5 12,-272.5 12,-272.5 6,-272.5 0,-266.5 0,-260.5 0,-260.5 0,-68.5 0,-68.5 0,-62.5 6,-56.5 12,-56.5"/>
<text text-anchor="middle" x="101.317" y="-257.3" font-family="Times,serif" font-size="14.00">ApplicationController</text>
<polyline fill="none" stroke="black" points="0,-250.5 202.635,-250.5 "/>
<text text-anchor="start" x="8" y="-235.3" font-family="Times,serif" font-size="14.00">_one_time_conditions_valid_18?</text>
<text text-anchor="start" x="8" y="-221.3" font-family="Times,serif" font-size="14.00">_one_time_conditions_valid_20?</text>
<polyline fill="none" stroke="black" points="0,-214.5 202.635,-214.5 "/>
<polyline fill="none" stroke="black" points="0,-190.5 202.635,-190.5 "/>
<text text-anchor="start" x="8" y="-175.3" font-family="Times,serif" font-size="14.00">_layout</text>
<text text-anchor="start" x="8" y="-161.3" font-family="Times,serif" font-size="14.00">authenticate</text>
<text text-anchor="start" x="8" y="-147.3" font-family="Times,serif" font-size="14.00">authorized?</text>
<text text-anchor="start" x="8" y="-133.3" font-family="Times,serif" font-size="14.00">can_access_route</text>
<text text-anchor="start" x="8" y="-119.3" font-family="Times,serif" font-size="14.00">current_user</text>
<text text-anchor="start" x="8" y="-105.3" font-family="Times,serif" font-size="14.00">ipad?</text>
<text text-anchor="start" x="8" y="-91.3" font-family="Times,serif" font-size="14.00">logged_in?</text>
<text text-anchor="start" x="8" y="-77.3" font-family="Times,serif" font-size="14.00">mobile?</text>
<text text-anchor="start" x="8" y="-63.3" font-family="Times,serif" font-size="14.00">prepare_for_mobile</text>
</g>
<!-- ChecklistItemsController -->
<g id="node2" class="node"><title>ChecklistItemsController</title>
<path fill="none" stroke="black" d="M232.552,-77.5C232.552,-77.5 366.083,-77.5 366.083,-77.5 372.083,-77.5 378.083,-83.5 378.083,-89.5 378.083,-89.5 378.083,-239.5 378.083,-239.5 378.083,-245.5 372.083,-251.5 366.083,-251.5 366.083,-251.5 232.552,-251.5 232.552,-251.5 226.552,-251.5 220.552,-245.5 220.552,-239.5 220.552,-239.5 220.552,-89.5 220.552,-89.5 220.552,-83.5 226.552,-77.5 232.552,-77.5"/>
<text text-anchor="middle" x="299.317" y="-236.3" font-family="Times,serif" font-size="14.00">ChecklistItemsController</text>
<polyline fill="none" stroke="black" points="220.552,-229.5 378.083,-229.5 "/>
<text text-anchor="start" x="228.552" y="-214.3" font-family="Times,serif" font-size="14.00">create</text>
<text text-anchor="start" x="228.552" y="-200.3" font-family="Times,serif" font-size="14.00">destroy</text>
<text text-anchor="start" x="228.552" y="-186.3" font-family="Times,serif" font-size="14.00">edit</text>
<text text-anchor="start" x="228.552" y="-172.3" font-family="Times,serif" font-size="14.00">index</text>
<text text-anchor="start" x="228.552" y="-158.3" font-family="Times,serif" font-size="14.00">new</text>
<text text-anchor="start" x="228.552" y="-144.3" font-family="Times,serif" font-size="14.00">show</text>
<text text-anchor="start" x="228.552" y="-130.3" font-family="Times,serif" font-size="14.00">update</text>
<polyline fill="none" stroke="black" points="220.552,-123.5 378.083,-123.5 "/>
<polyline fill="none" stroke="black" points="220.552,-99.5 378.083,-99.5 "/>
<text text-anchor="start" x="228.552" y="-84.3" font-family="Times,serif" font-size="14.00">_layout</text>
</g>
<!-- ChecklistsController -->
<g id="node3" class="node"><title>ChecklistsController</title>
<path fill="none" stroke="black" d="M408.379,-77.5C408.379,-77.5 516.255,-77.5 516.255,-77.5 522.255,-77.5 528.255,-83.5 528.255,-89.5 528.255,-89.5 528.255,-239.5 528.255,-239.5 528.255,-245.5 522.255,-251.5 516.255,-251.5 516.255,-251.5 408.379,-251.5 408.379,-251.5 402.379,-251.5 396.379,-245.5 396.379,-239.5 396.379,-239.5 396.379,-89.5 396.379,-89.5 396.379,-83.5 402.379,-77.5 408.379,-77.5"/>
<text text-anchor="middle" x="462.317" y="-236.3" font-family="Times,serif" font-size="14.00">ChecklistsController</text>
<polyline fill="none" stroke="black" points="396.379,-229.5 528.255,-229.5 "/>
<text text-anchor="start" x="404.379" y="-214.3" font-family="Times,serif" font-size="14.00">create</text>
<text text-anchor="start" x="404.379" y="-200.3" font-family="Times,serif" font-size="14.00">destroy</text>
<text text-anchor="start" x="404.379" y="-186.3" font-family="Times,serif" font-size="14.00">edit</text>
<text text-anchor="start" x="404.379" y="-172.3" font-family="Times,serif" font-size="14.00">index</text>
<text text-anchor="start" x="404.379" y="-158.3" font-family="Times,serif" font-size="14.00">new</text>
<text text-anchor="start" x="404.379" y="-144.3" font-family="Times,serif" font-size="14.00">show</text>
<text text-anchor="start" x="404.379" y="-130.3" font-family="Times,serif" font-size="14.00">update</text>
<polyline fill="none" stroke="black" points="396.379,-123.5 528.255,-123.5 "/>
<polyline fill="none" stroke="black" points="396.379,-99.5 528.255,-99.5 "/>
<text text-anchor="start" x="404.379" y="-84.3" font-family="Times,serif" font-size="14.00">_layout</text>
</g>
<!-- CommentTypesController -->
<g id="node4" class="node"><title>CommentTypesController</title>
<path fill="none" stroke="black" d="M558,-70.5C558,-70.5 736.635,-70.5 736.635,-70.5 742.635,-70.5 748.635,-76.5 748.635,-82.5 748.635,-82.5 748.635,-246.5 748.635,-246.5 748.635,-252.5 742.635,-258.5 736.635,-258.5 736.635,-258.5 558,-258.5 558,-258.5 552,-258.5 546,-252.5 546,-246.5 546,-246.5 546,-82.5 546,-82.5 546,-76.5 552,-70.5 558,-70.5"/>
<text text-anchor="middle" x="647.317" y="-243.3" font-family="Times,serif" font-size="14.00">CommentTypesController</text>
<polyline fill="none" stroke="black" points="546,-236.5 748.635,-236.5 "/>
<text text-anchor="start" x="554" y="-221.3" font-family="Times,serif" font-size="14.00">_one_time_conditions_valid_60?</text>
<text text-anchor="start" x="554" y="-207.3" font-family="Times,serif" font-size="14.00">create</text>
<text text-anchor="start" x="554" y="-193.3" font-family="Times,serif" font-size="14.00">destroy</text>
<text text-anchor="start" x="554" y="-179.3" font-family="Times,serif" font-size="14.00">edit</text>
<text text-anchor="start" x="554" y="-165.3" font-family="Times,serif" font-size="14.00">index</text>
<text text-anchor="start" x="554" y="-151.3" font-family="Times,serif" font-size="14.00">new</text>
<text text-anchor="start" x="554" y="-137.3" font-family="Times,serif" font-size="14.00">show</text>
<text text-anchor="start" x="554" y="-123.3" font-family="Times,serif" font-size="14.00">update</text>
<polyline fill="none" stroke="black" points="546,-116.5 748.635,-116.5 "/>
<polyline fill="none" stroke="black" points="546,-92.5 748.635,-92.5 "/>
<text text-anchor="start" x="554" y="-77.3" font-family="Times,serif" font-size="14.00">_layout</text>
</g>
<!-- CommentsController -->
<g id="node5" class="node"><title>CommentsController</title>
<path fill="none" stroke="black" d="M779,-63.5C779,-63.5 957.635,-63.5 957.635,-63.5 963.635,-63.5 969.635,-69.5 969.635,-75.5 969.635,-75.5 969.635,-253.5 969.635,-253.5 969.635,-259.5 963.635,-265.5 957.635,-265.5 957.635,-265.5 779,-265.5 779,-265.5 773,-265.5 767,-259.5 767,-253.5 767,-253.5 767,-75.5 767,-75.5 767,-69.5 773,-63.5 779,-63.5"/>
<text text-anchor="middle" x="868.317" y="-250.3" font-family="Times,serif" font-size="14.00">CommentsController</text>
<polyline fill="none" stroke="black" points="767,-243.5 969.635,-243.5 "/>
<text text-anchor="start" x="775" y="-228.3" font-family="Times,serif" font-size="14.00">_one_time_conditions_valid_68?</text>
<text text-anchor="start" x="775" y="-214.3" font-family="Times,serif" font-size="14.00">_one_time_conditions_valid_70?</text>
<text text-anchor="start" x="775" y="-200.3" font-family="Times,serif" font-size="14.00">create</text>
<text text-anchor="start" x="775" y="-186.3" font-family="Times,serif" font-size="14.00">destroy</text>
<text text-anchor="start" x="775" y="-172.3" font-family="Times,serif" font-size="14.00">edit</text>
<text text-anchor="start" x="775" y="-158.3" font-family="Times,serif" font-size="14.00">index</text>
<text text-anchor="start" x="775" y="-144.3" font-family="Times,serif" font-size="14.00">new</text>
<text text-anchor="start" x="775" y="-130.3" font-family="Times,serif" font-size="14.00">show</text>
<text text-anchor="start" x="775" y="-116.3" font-family="Times,serif" font-size="14.00">update</text>
<polyline fill="none" stroke="black" points="767,-109.5 969.635,-109.5 "/>
<polyline fill="none" stroke="black" points="767,-85.5 969.635,-85.5 "/>
<text text-anchor="start" x="775" y="-70.3" font-family="Times,serif" font-size="14.00">_layout</text>
</g>
<!-- DifficultiesController -->
<g id="node6" class="node"><title>DifficultiesController</title>
<path fill="none" stroke="black" d="M1000.05,-77.5C1000.05,-77.5 1112.59,-77.5 1112.59,-77.5 1118.59,-77.5 1124.59,-83.5 1124.59,-89.5 1124.59,-89.5 1124.59,-239.5 1124.59,-239.5 1124.59,-245.5 1118.59,-251.5 1112.59,-251.5 1112.59,-251.5 1000.05,-251.5 1000.05,-251.5 994.048,-251.5 988.048,-245.5 988.048,-239.5 988.048,-239.5 988.048,-89.5 988.048,-89.5 988.048,-83.5 994.048,-77.5 1000.05,-77.5"/>
<text text-anchor="middle" x="1056.32" y="-236.3" font-family="Times,serif" font-size="14.00">DifficultiesController</text>
<polyline fill="none" stroke="black" points="988.048,-229.5 1124.59,-229.5 "/>
<text text-anchor="start" x="996.048" y="-214.3" font-family="Times,serif" font-size="14.00">create</text>
<text text-anchor="start" x="996.048" y="-200.3" font-family="Times,serif" font-size="14.00">destroy</text>
<text text-anchor="start" x="996.048" y="-186.3" font-family="Times,serif" font-size="14.00">edit</text>
<text text-anchor="start" x="996.048" y="-172.3" font-family="Times,serif" font-size="14.00">index</text>
<text text-anchor="start" x="996.048" y="-158.3" font-family="Times,serif" font-size="14.00">new</text>
<text text-anchor="start" x="996.048" y="-144.3" font-family="Times,serif" font-size="14.00">show</text>
<text text-anchor="start" x="996.048" y="-130.3" font-family="Times,serif" font-size="14.00">update</text>
<polyline fill="none" stroke="black" points="988.048,-123.5 1124.59,-123.5 "/>
<polyline fill="none" stroke="black" points="988.048,-99.5 1124.59,-99.5 "/>
<text text-anchor="start" x="996.048" y="-84.3" font-family="Times,serif" font-size="14.00">_layout</text>
</g>
<!-- GoalsController -->
<g id="node7" class="node"><title>GoalsController</title>
<path fill="none" stroke="black" d="M1155,-70.5C1155,-70.5 1333.63,-70.5 1333.63,-70.5 1339.63,-70.5 1345.63,-76.5 1345.63,-82.5 1345.63,-82.5 1345.63,-246.5 1345.63,-246.5 1345.63,-252.5 1339.63,-258.5 1333.63,-258.5 1333.63,-258.5 1155,-258.5 1155,-258.5 1149,-258.5 1143,-252.5 1143,-246.5 1143,-246.5 1143,-82.5 1143,-82.5 1143,-76.5 1149,-70.5 1155,-70.5"/>
<text text-anchor="middle" x="1244.32" y="-243.3" font-family="Times,serif" font-size="14.00">GoalsController</text>
<polyline fill="none" stroke="black" points="1143,-236.5 1345.63,-236.5 "/>
<text text-anchor="start" x="1151" y="-221.3" font-family="Times,serif" font-size="14.00">_one_time_conditions_valid_90?</text>
<text text-anchor="start" x="1151" y="-207.3" font-family="Times,serif" font-size="14.00">create</text>
<text text-anchor="start" x="1151" y="-193.3" font-family="Times,serif" font-size="14.00">destroy</text>
<text text-anchor="start" x="1151" y="-179.3" font-family="Times,serif" font-size="14.00">edit</text>
<text text-anchor="start" x="1151" y="-165.3" font-family="Times,serif" font-size="14.00">index</text>
<text text-anchor="start" x="1151" y="-151.3" font-family="Times,serif" font-size="14.00">new</text>
<text text-anchor="start" x="1151" y="-137.3" font-family="Times,serif" font-size="14.00">show</text>
<text text-anchor="start" x="1151" y="-123.3" font-family="Times,serif" font-size="14.00">update</text>
<polyline fill="none" stroke="black" points="1143,-116.5 1345.63,-116.5 "/>
<polyline fill="none" stroke="black" points="1143,-92.5 1345.63,-92.5 "/>
<text text-anchor="start" x="1151" y="-77.3" font-family="Times,serif" font-size="14.00">_layout</text>
</g>
<!-- HomeController -->
<g id="node8" class="node"><title>HomeController</title>
<path fill="none" stroke="black" d="M1375.44,-112.5C1375.44,-112.5 1459.2,-112.5 1459.2,-112.5 1465.2,-112.5 1471.2,-118.5 1471.2,-124.5 1471.2,-124.5 1471.2,-204.5 1471.2,-204.5 1471.2,-210.5 1465.2,-216.5 1459.2,-216.5 1459.2,-216.5 1375.44,-216.5 1375.44,-216.5 1369.44,-216.5 1363.44,-210.5 1363.44,-204.5 1363.44,-204.5 1363.44,-124.5 1363.44,-124.5 1363.44,-118.5 1369.44,-112.5 1375.44,-112.5"/>
<text text-anchor="middle" x="1417.32" y="-201.3" font-family="Times,serif" font-size="14.00">HomeController</text>
<polyline fill="none" stroke="black" points="1363.44,-194.5 1471.2,-194.5 "/>
<text text-anchor="start" x="1371.44" y="-179.3" font-family="Times,serif" font-size="14.00">index</text>
<text text-anchor="start" x="1371.44" y="-165.3" font-family="Times,serif" font-size="14.00">index_old</text>
<polyline fill="none" stroke="black" points="1363.44,-158.5 1471.2,-158.5 "/>
<polyline fill="none" stroke="black" points="1363.44,-134.5 1471.2,-134.5 "/>
<text text-anchor="start" x="1371.44" y="-119.3" font-family="Times,serif" font-size="14.00">_layout</text>
</g>
<!-- ImportancesController -->
<g id="node9" class="node"><title>ImportancesController</title>
<path fill="none" stroke="black" d="M1500.95,-77.5C1500.95,-77.5 1619.69,-77.5 1619.69,-77.5 1625.69,-77.5 1631.69,-83.5 1631.69,-89.5 1631.69,-89.5 1631.69,-239.5 1631.69,-239.5 1631.69,-245.5 1625.69,-251.5 1619.69,-251.5 1619.69,-251.5 1500.95,-251.5 1500.95,-251.5 1494.95,-251.5 1488.95,-245.5 1488.95,-239.5 1488.95,-239.5 1488.95,-89.5 1488.95,-89.5 1488.95,-83.5 1494.95,-77.5 1500.95,-77.5"/>
<text text-anchor="middle" x="1560.32" y="-236.3" font-family="Times,serif" font-size="14.00">ImportancesController</text>
<polyline fill="none" stroke="black" points="1488.95,-229.5 1631.69,-229.5 "/>
<text text-anchor="start" x="1496.95" y="-214.3" font-family="Times,serif" font-size="14.00">create</text>
<text text-anchor="start" x="1496.95" y="-200.3" font-family="Times,serif" font-size="14.00">destroy</text>
<text text-anchor="start" x="1496.95" y="-186.3" font-family="Times,serif" font-size="14.00">edit</text>
<text text-anchor="start" x="1496.95" y="-172.3" font-family="Times,serif" font-size="14.00">index</text>
<text text-anchor="start" x="1496.95" y="-158.3" font-family="Times,serif" font-size="14.00">new</text>
<text text-anchor="start" x="1496.95" y="-144.3" font-family="Times,serif" font-size="14.00">show</text>
<text text-anchor="start" x="1496.95" y="-130.3" font-family="Times,serif" font-size="14.00">update</text>
<polyline fill="none" stroke="black" points="1488.95,-123.5 1631.69,-123.5 "/>
<polyline fill="none" stroke="black" points="1488.95,-99.5 1631.69,-99.5 "/>
<text text-anchor="start" x="1496.95" y="-84.3" font-family="Times,serif" font-size="14.00">_layout</text>
</g>
<!-- InvitationsController -->
<g id="node10" class="node"><title>InvitationsController</title>
<path fill="none" stroke="black" d="M1661.6,-112.5C1661.6,-112.5 1771.03,-112.5 1771.03,-112.5 1777.03,-112.5 1783.03,-118.5 1783.03,-124.5 1783.03,-124.5 1783.03,-204.5 1783.03,-204.5 1783.03,-210.5 1777.03,-216.5 1771.03,-216.5 1771.03,-216.5 1661.6,-216.5 1661.6,-216.5 1655.6,-216.5 1649.6,-210.5 1649.6,-204.5 1649.6,-204.5 1649.6,-124.5 1649.6,-124.5 1649.6,-118.5 1655.6,-112.5 1661.6,-112.5"/>
<text text-anchor="middle" x="1716.32" y="-201.3" font-family="Times,serif" font-size="14.00">InvitationsController</text>
<polyline fill="none" stroke="black" points="1649.6,-194.5 1783.03,-194.5 "/>
<text text-anchor="start" x="1657.6" y="-179.3" font-family="Times,serif" font-size="14.00">create</text>
<text text-anchor="start" x="1657.6" y="-165.3" font-family="Times,serif" font-size="14.00">new</text>
<polyline fill="none" stroke="black" points="1649.6,-158.5 1783.03,-158.5 "/>
<polyline fill="none" stroke="black" points="1649.6,-134.5 1783.03,-134.5 "/>
<text text-anchor="start" x="1657.6" y="-119.3" font-family="Times,serif" font-size="14.00">_layout</text>
</g>
<!-- LandingController -->
<g id="node11" class="node"><title>LandingController</title>
<path fill="none" stroke="black" d="M1813.22,-119.5C1813.22,-119.5 1909.42,-119.5 1909.42,-119.5 1915.42,-119.5 1921.42,-125.5 1921.42,-131.5 1921.42,-131.5 1921.42,-197.5 1921.42,-197.5 1921.42,-203.5 1915.42,-209.5 1909.42,-209.5 1909.42,-209.5 1813.22,-209.5 1813.22,-209.5 1807.22,-209.5 1801.22,-203.5 1801.22,-197.5 1801.22,-197.5 1801.22,-131.5 1801.22,-131.5 1801.22,-125.5 1807.22,-119.5 1813.22,-119.5"/>
<text text-anchor="middle" x="1861.32" y="-194.3" font-family="Times,serif" font-size="14.00">LandingController</text>
<polyline fill="none" stroke="black" points="1801.22,-187.5 1921.42,-187.5 "/>
<text text-anchor="start" x="1809.22" y="-172.3" font-family="Times,serif" font-size="14.00">index</text>
<polyline fill="none" stroke="black" points="1801.22,-165.5 1921.42,-165.5 "/>
<polyline fill="none" stroke="black" points="1801.22,-141.5 1921.42,-141.5 "/>
<text text-anchor="start" x="1809.22" y="-126.3" font-family="Times,serif" font-size="14.00">_layout</text>
</g>
<!-- OauthTablesController -->
<g id="node12" class="node"><title>OauthTablesController</title>
<path fill="none" stroke="black" d="M1951.5,-70.5C1951.5,-70.5 2137.13,-70.5 2137.13,-70.5 2143.13,-70.5 2149.13,-76.5 2149.13,-82.5 2149.13,-82.5 2149.13,-246.5 2149.13,-246.5 2149.13,-252.5 2143.13,-258.5 2137.13,-258.5 2137.13,-258.5 1951.5,-258.5 1951.5,-258.5 1945.5,-258.5 1939.5,-252.5 1939.5,-246.5 1939.5,-246.5 1939.5,-82.5 1939.5,-82.5 1939.5,-76.5 1945.5,-70.5 1951.5,-70.5"/>
<text text-anchor="middle" x="2044.32" y="-243.3" font-family="Times,serif" font-size="14.00">OauthTablesController</text>
<polyline fill="none" stroke="black" points="1939.5,-236.5 2149.13,-236.5 "/>
<text text-anchor="start" x="1947.5" y="-221.3" font-family="Times,serif" font-size="14.00">_one_time_conditions_valid_126?</text>
<text text-anchor="start" x="1947.5" y="-207.3" font-family="Times,serif" font-size="14.00">create</text>
<text text-anchor="start" x="1947.5" y="-193.3" font-family="Times,serif" font-size="14.00">destroy</text>
<text text-anchor="start" x="1947.5" y="-179.3" font-family="Times,serif" font-size="14.00">edit</text>
<text text-anchor="start" x="1947.5" y="-165.3" font-family="Times,serif" font-size="14.00">index</text>
<text text-anchor="start" x="1947.5" y="-151.3" font-family="Times,serif" font-size="14.00">new</text>
<text text-anchor="start" x="1947.5" y="-137.3" font-family="Times,serif" font-size="14.00">show</text>
<text text-anchor="start" x="1947.5" y="-123.3" font-family="Times,serif" font-size="14.00">update</text>
<polyline fill="none" stroke="black" points="1939.5,-116.5 2149.13,-116.5 "/>
<polyline fill="none" stroke="black" points="1939.5,-92.5 2149.13,-92.5 "/>
<text text-anchor="start" x="1947.5" y="-77.3" font-family="Times,serif" font-size="14.00">_layout</text>
</g>
<!-- PasswordResetsController -->
<g id="node13" class="node"><title>PasswordResetsController</title>
<path fill="none" stroke="black" d="M2179.43,-98.5C2179.43,-98.5 2319.2,-98.5 2319.2,-98.5 2325.2,-98.5 2331.2,-104.5 2331.2,-110.5 2331.2,-110.5 2331.2,-218.5 2331.2,-218.5 2331.2,-224.5 2325.2,-230.5 2319.2,-230.5 2319.2,-230.5 2179.43,-230.5 2179.43,-230.5 2173.43,-230.5 2167.43,-224.5 2167.43,-218.5 2167.43,-218.5 2167.43,-110.5 2167.43,-110.5 2167.43,-104.5 2173.43,-98.5 2179.43,-98.5"/>
<text text-anchor="middle" x="2249.32" y="-215.3" font-family="Times,serif" font-size="14.00">PasswordResetsController</text>
<polyline fill="none" stroke="black" points="2167.43,-208.5 2331.2,-208.5 "/>
<text text-anchor="start" x="2175.43" y="-193.3" font-family="Times,serif" font-size="14.00">create</text>
<text text-anchor="start" x="2175.43" y="-179.3" font-family="Times,serif" font-size="14.00">edit</text>
<text text-anchor="start" x="2175.43" y="-165.3" font-family="Times,serif" font-size="14.00">new</text>
<text text-anchor="start" x="2175.43" y="-151.3" font-family="Times,serif" font-size="14.00">update</text>
<polyline fill="none" stroke="black" points="2167.43,-144.5 2331.2,-144.5 "/>
<polyline fill="none" stroke="black" points="2167.43,-120.5 2331.2,-120.5 "/>
<text text-anchor="start" x="2175.43" y="-105.3" font-family="Times,serif" font-size="14.00">_layout</text>
</g>
<!-- ProjectsController -->
<g id="node14" class="node"><title>ProjectsController</title>
<path fill="none" stroke="black" d="M2361.5,-56.5C2361.5,-56.5 2547.13,-56.5 2547.13,-56.5 2553.13,-56.5 2559.13,-62.5 2559.13,-68.5 2559.13,-68.5 2559.13,-260.5 2559.13,-260.5 2559.13,-266.5 2553.13,-272.5 2547.13,-272.5 2547.13,-272.5 2361.5,-272.5 2361.5,-272.5 2355.5,-272.5 2349.5,-266.5 2349.5,-260.5 2349.5,-260.5 2349.5,-68.5 2349.5,-68.5 2349.5,-62.5 2355.5,-56.5 2361.5,-56.5"/>
<text text-anchor="middle" x="2454.32" y="-257.3" font-family="Times,serif" font-size="14.00">ProjectsController</text>
<polyline fill="none" stroke="black" points="2349.5,-250.5 2559.13,-250.5 "/>
<text text-anchor="start" x="2357.5" y="-235.3" font-family="Times,serif" font-size="14.00">_one_time_conditions_valid_166?</text>
<text text-anchor="start" x="2357.5" y="-221.3" font-family="Times,serif" font-size="14.00">_one_time_conditions_valid_168?</text>
<text text-anchor="start" x="2357.5" y="-207.3" font-family="Times,serif" font-size="14.00">create</text>
<text text-anchor="start" x="2357.5" y="-193.3" font-family="Times,serif" font-size="14.00">destroy</text>
<text text-anchor="start" x="2357.5" y="-179.3" font-family="Times,serif" font-size="14.00">edit</text>
<text text-anchor="start" x="2357.5" y="-165.3" font-family="Times,serif" font-size="14.00">get_last_project</text>
<text text-anchor="start" x="2357.5" y="-151.3" font-family="Times,serif" font-size="14.00">index</text>
<text text-anchor="start" x="2357.5" y="-137.3" font-family="Times,serif" font-size="14.00">new</text>
<text text-anchor="start" x="2357.5" y="-123.3" font-family="Times,serif" font-size="14.00">show</text>
<text text-anchor="start" x="2357.5" y="-109.3" font-family="Times,serif" font-size="14.00">update</text>
<polyline fill="none" stroke="black" points="2349.5,-102.5 2559.13,-102.5 "/>
<polyline fill="none" stroke="black" points="2349.5,-78.5 2559.13,-78.5 "/>
<text text-anchor="start" x="2357.5" y="-63.3" font-family="Times,serif" font-size="14.00">_layout</text>
</g>
<!-- SessionsController -->
<g id="node15" class="node"><title>SessionsController</title>
<path fill="none" stroke="black" d="M2589.43,-105.5C2589.43,-105.5 2687.21,-105.5 2687.21,-105.5 2693.21,-105.5 2699.21,-111.5 2699.21,-117.5 2699.21,-117.5 2699.21,-211.5 2699.21,-211.5 2699.21,-217.5 2693.21,-223.5 2687.21,-223.5 2687.21,-223.5 2589.43,-223.5 2589.43,-223.5 2583.43,-223.5 2577.43,-217.5 2577.43,-211.5 2577.43,-211.5 2577.43,-117.5 2577.43,-117.5 2577.43,-111.5 2583.43,-105.5 2589.43,-105.5"/>
<text text-anchor="middle" x="2638.32" y="-208.3" font-family="Times,serif" font-size="14.00">SessionsController</text>
<polyline fill="none" stroke="black" points="2577.43,-201.5 2699.21,-201.5 "/>
<text text-anchor="start" x="2585.43" y="-186.3" font-family="Times,serif" font-size="14.00">create</text>
<text text-anchor="start" x="2585.43" y="-172.3" font-family="Times,serif" font-size="14.00">destroy</text>
<text text-anchor="start" x="2585.43" y="-158.3" font-family="Times,serif" font-size="14.00">new</text>
<polyline fill="none" stroke="black" points="2577.43,-151.5 2699.21,-151.5 "/>
<polyline fill="none" stroke="black" points="2577.43,-127.5 2699.21,-127.5 "/>
<text text-anchor="start" x="2585.43" y="-112.3" font-family="Times,serif" font-size="14.00">_layout</text>
</g>
<!-- TasksController -->
<g id="node16" class="node"><title>TasksController</title>
<path fill="none" stroke="black" d="M2729.5,-0.5C2729.5,-0.5 2915.13,-0.5 2915.13,-0.5 2921.13,-0.5 2927.13,-6.5 2927.13,-12.5 2927.13,-12.5 2927.13,-316.5 2927.13,-316.5 2927.13,-322.5 2921.13,-328.5 2915.13,-328.5 2915.13,-328.5 2729.5,-328.5 2729.5,-328.5 2723.5,-328.5 2717.5,-322.5 2717.5,-316.5 2717.5,-316.5 2717.5,-12.5 2717.5,-12.5 2717.5,-6.5 2723.5,-0.5 2729.5,-0.5"/>
<text text-anchor="middle" x="2822.32" y="-313.3" font-family="Times,serif" font-size="14.00">TasksController</text>
<polyline fill="none" stroke="black" points="2717.5,-306.5 2927.13,-306.5 "/>
<text text-anchor="start" x="2725.5" y="-291.3" font-family="Times,serif" font-size="14.00">_one_time_conditions_valid_212?</text>
<text text-anchor="start" x="2725.5" y="-277.3" font-family="Times,serif" font-size="14.00">_one_time_conditions_valid_214?</text>
<text text-anchor="start" x="2725.5" y="-263.3" font-family="Times,serif" font-size="14.00">create</text>
<text text-anchor="start" x="2725.5" y="-249.3" font-family="Times,serif" font-size="14.00">destroy</text>
<text text-anchor="start" x="2725.5" y="-235.3" font-family="Times,serif" font-size="14.00">edit</text>
<text text-anchor="start" x="2725.5" y="-221.3" font-family="Times,serif" font-size="14.00">index</text>
<text text-anchor="start" x="2725.5" y="-207.3" font-family="Times,serif" font-size="14.00">mobile_projects</text>
<text text-anchor="start" x="2725.5" y="-193.3" font-family="Times,serif" font-size="14.00">new</text>
<text text-anchor="start" x="2725.5" y="-179.3" font-family="Times,serif" font-size="14.00">non_trello</text>
<text text-anchor="start" x="2725.5" y="-165.3" font-family="Times,serif" font-size="14.00">show</text>
<text text-anchor="start" x="2725.5" y="-151.3" font-family="Times,serif" font-size="14.00">tasks_resindex_to_be_reset</text>
<text text-anchor="start" x="2725.5" y="-137.3" font-family="Times,serif" font-size="14.00">tasks_with_no_resindex</text>
<text text-anchor="start" x="2725.5" y="-123.3" font-family="Times,serif" font-size="14.00">tasks_with_resindex</text>
<text text-anchor="start" x="2725.5" y="-109.3" font-family="Times,serif" font-size="14.00">top10_non_trello</text>
<text text-anchor="start" x="2725.5" y="-95.3" font-family="Times,serif" font-size="14.00">top10_trello</text>
<text text-anchor="start" x="2725.5" y="-81.3" font-family="Times,serif" font-size="14.00">top_10</text>
<text text-anchor="start" x="2725.5" y="-67.3" font-family="Times,serif" font-size="14.00">trello_only</text>
<text text-anchor="start" x="2725.5" y="-53.3" font-family="Times,serif" font-size="14.00">update</text>
<polyline fill="none" stroke="black" points="2717.5,-46.5 2927.13,-46.5 "/>
<polyline fill="none" stroke="black" points="2717.5,-22.5 2927.13,-22.5 "/>
<text text-anchor="start" x="2725.5" y="-7.3" font-family="Times,serif" font-size="14.00">_layout</text>
</g>
<!-- TimeRecordsController -->
<g id="node17" class="node"><title>TimeRecordsController</title>
<path fill="none" stroke="black" d="M2957.5,-70.5C2957.5,-70.5 3143.13,-70.5 3143.13,-70.5 3149.13,-70.5 3155.13,-76.5 3155.13,-82.5 3155.13,-82.5 3155.13,-246.5 3155.13,-246.5 3155.13,-252.5 3149.13,-258.5 3143.13,-258.5 3143.13,-258.5 2957.5,-258.5 2957.5,-258.5 2951.5,-258.5 2945.5,-252.5 2945.5,-246.5 2945.5,-246.5 2945.5,-82.5 2945.5,-82.5 2945.5,-76.5 2951.5,-70.5 2957.5,-70.5"/>
<text text-anchor="middle" x="3050.32" y="-243.3" font-family="Times,serif" font-size="14.00">TimeRecordsController</text>
<polyline fill="none" stroke="black" points="2945.5,-236.5 3155.13,-236.5 "/>
<text text-anchor="start" x="2953.5" y="-221.3" font-family="Times,serif" font-size="14.00">_one_time_conditions_valid_216?</text>
<text text-anchor="start" x="2953.5" y="-207.3" font-family="Times,serif" font-size="14.00">create</text>
<text text-anchor="start" x="2953.5" y="-193.3" font-family="Times,serif" font-size="14.00">destroy</text>
<text text-anchor="start" x="2953.5" y="-179.3" font-family="Times,serif" font-size="14.00">edit</text>
<text text-anchor="start" x="2953.5" y="-165.3" font-family="Times,serif" font-size="14.00">index</text>
<text text-anchor="start" x="2953.5" y="-151.3" font-family="Times,serif" font-size="14.00">new</text>
<text text-anchor="start" x="2953.5" y="-137.3" font-family="Times,serif" font-size="14.00">show</text>
<text text-anchor="start" x="2953.5" y="-123.3" font-family="Times,serif" font-size="14.00">update</text>
<polyline fill="none" stroke="black" points="2945.5,-116.5 3155.13,-116.5 "/>
<polyline fill="none" stroke="black" points="2945.5,-92.5 3155.13,-92.5 "/>
<text text-anchor="start" x="2953.5" y="-77.3" font-family="Times,serif" font-size="14.00">_layout</text>
</g>
<!-- TrelloController -->
<g id="node18" class="node"><title>TrelloController</title>
<path fill="none" stroke="black" d="M3185.5,-91.5C3185.5,-91.5 3371.13,-91.5 3371.13,-91.5 3377.13,-91.5 3383.13,-97.5 3383.13,-103.5 3383.13,-103.5 3383.13,-225.5 3383.13,-225.5 3383.13,-231.5 3377.13,-237.5 3371.13,-237.5 3371.13,-237.5 3185.5,-237.5 3185.5,-237.5 3179.5,-237.5 3173.5,-231.5 3173.5,-225.5 3173.5,-225.5 3173.5,-103.5 3173.5,-103.5 3173.5,-97.5 3179.5,-91.5 3185.5,-91.5"/>
<text text-anchor="middle" x="3278.32" y="-222.3" font-family="Times,serif" font-size="14.00">TrelloController</text>
<polyline fill="none" stroke="black" points="3173.5,-215.5 3383.13,-215.5 "/>
<text text-anchor="start" x="3181.5" y="-200.3" font-family="Times,serif" font-size="14.00">_one_time_conditions_valid_218?</text>
<text text-anchor="start" x="3181.5" y="-186.3" font-family="Times,serif" font-size="14.00">access</text>
<text text-anchor="start" x="3181.5" y="-172.3" font-family="Times,serif" font-size="14.00">callback</text>
<text text-anchor="start" x="3181.5" y="-158.3" font-family="Times,serif" font-size="14.00">make_read_write_authorize_url</text>
<text text-anchor="start" x="3181.5" y="-144.3" font-family="Times,serif" font-size="14.00">oauth</text>
<polyline fill="none" stroke="black" points="3173.5,-137.5 3383.13,-137.5 "/>
<polyline fill="none" stroke="black" points="3173.5,-113.5 3383.13,-113.5 "/>
<text text-anchor="start" x="3181.5" y="-98.3" font-family="Times,serif" font-size="14.00">_layout</text>
</g>
<!-- UsersController -->
<g id="node19" class="node"><title>UsersController</title>
<path fill="none" stroke="black" d="M3413.5,-56.5C3413.5,-56.5 3599.13,-56.5 3599.13,-56.5 3605.13,-56.5 3611.13,-62.5 3611.13,-68.5 3611.13,-68.5 3611.13,-260.5 3611.13,-260.5 3611.13,-266.5 3605.13,-272.5 3599.13,-272.5 3599.13,-272.5 3413.5,-272.5 3413.5,-272.5 3407.5,-272.5 3401.5,-266.5 3401.5,-260.5 3401.5,-260.5 3401.5,-68.5 3401.5,-68.5 3401.5,-62.5 3407.5,-56.5 3413.5,-56.5"/>
<text text-anchor="middle" x="3506.32" y="-257.3" font-family="Times,serif" font-size="14.00">UsersController</text>
<polyline fill="none" stroke="black" points="3401.5,-250.5 3611.13,-250.5 "/>
<text text-anchor="start" x="3409.5" y="-235.3" font-family="Times,serif" font-size="14.00">_one_time_conditions_valid_332?</text>
<text text-anchor="start" x="3409.5" y="-221.3" font-family="Times,serif" font-size="14.00">_one_time_conditions_valid_334?</text>
<text text-anchor="start" x="3409.5" y="-207.3" font-family="Times,serif" font-size="14.00">create</text>
<text text-anchor="start" x="3409.5" y="-193.3" font-family="Times,serif" font-size="14.00">destroy</text>
<text text-anchor="start" x="3409.5" y="-179.3" font-family="Times,serif" font-size="14.00">edit</text>
<text text-anchor="start" x="3409.5" y="-165.3" font-family="Times,serif" font-size="14.00">index</text>
<text text-anchor="start" x="3409.5" y="-151.3" font-family="Times,serif" font-size="14.00">invite</text>
<text text-anchor="start" x="3409.5" y="-137.3" font-family="Times,serif" font-size="14.00">new</text>
<text text-anchor="start" x="3409.5" y="-123.3" font-family="Times,serif" font-size="14.00">show</text>
<text text-anchor="start" x="3409.5" y="-109.3" font-family="Times,serif" font-size="14.00">update</text>
<polyline fill="none" stroke="black" points="3401.5,-102.5 3611.13,-102.5 "/>
<polyline fill="none" stroke="black" points="3401.5,-78.5 3611.13,-78.5 "/>
<text text-anchor="start" x="3409.5" y="-63.3" font-family="Times,serif" font-size="14.00">_layout</text>
</g>
</g>
</svg>
