<?xml version="1.0" encoding="UTF-8" standalone="no"?>
<!DOCTYPE svg PUBLIC "-//W3C//DTD SVG 1.1//EN"
 "http://www.w3.org/Graphics/SVG/1.1/DTD/svg11.dtd">
<!-- Generated by graphviz version 2.38.0 (20140413.2041)
 -->
<!-- Title: models_diagram Pages: 1 -->
<svg width="834pt" height="1077pt"
 viewBox="0.00 0.00 833.79 1077.00" xmlns="http://www.w3.org/2000/svg" xmlns:xlink="http://www.w3.org/1999/xlink">
<g id="graph0" class="graph" transform="scale(1 1) rotate(0) translate(4 1073)">
<title>models_diagram</title>
<polygon fill="white" stroke="none" points="-4,4 -4,-1073 829.79,-1073 829.79,4 -4,4"/>
<!-- Checklist -->
<g id="node1" class="node"><title>Checklist</title>
<path fill="none" stroke="black" d="M12,-235.5C12,-235.5 121.011,-235.5 121.011,-235.5 127.011,-235.5 133.011,-241.5 133.011,-247.5 133.011,-247.5 133.011,-323.5 133.011,-323.5 133.011,-329.5 127.011,-335.5 121.011,-335.5 121.011,-335.5 12,-335.5 12,-335.5 6,-335.5 0,-329.5 0,-323.5 0,-323.5 0,-247.5 0,-247.5 0,-241.5 6,-235.5 12,-235.5"/>
<text text-anchor="middle" x="66.5054" y="-320.3" font-family="Times,serif" font-size="14.00">Checklist</text>
<polyline fill="none" stroke="black" points="0,-313.5 133.011,-313.5 "/>
<text text-anchor="start" x="8" y="-298.3" font-family="Times,serif" font-size="14.00">id :integer</text>
<text text-anchor="start" x="8" y="-284.3" font-family="Times,serif" font-size="14.00">name :string</text>
<text text-anchor="start" x="8" y="-270.3" font-family="Times,serif" font-size="14.00">task_id :integer</text>
<text text-anchor="start" x="8" y="-256.3" font-family="Times,serif" font-size="14.00">created_at :datetime</text>
<text text-anchor="start" x="8" y="-242.3" font-family="Times,serif" font-size="14.00">updated_at :datetime</text>
</g>
<!-- ChecklistItem -->
<g id="node2" class="node"><title>ChecklistItem</title>
<path fill="none" stroke="black" d="M12,-21.5C12,-21.5 121.011,-21.5 121.011,-21.5 127.011,-21.5 133.011,-27.5 133.011,-33.5 133.011,-33.5 133.011,-123.5 133.011,-123.5 133.011,-129.5 127.011,-135.5 121.011,-135.5 121.011,-135.5 12,-135.5 12,-135.5 6,-135.5 0,-129.5 0,-123.5 0,-123.5 0,-33.5 0,-33.5 0,-27.5 6,-21.5 12,-21.5"/>
<text text-anchor="middle" x="66.5054" y="-120.3" font-family="Times,serif" font-size="14.00">ChecklistItem</text>
<polyline fill="none" stroke="black" points="0,-113.5 133.011,-113.5 "/>
<text text-anchor="start" x="8" y="-98.3" font-family="Times,serif" font-size="14.00">id :integer</text>
<text text-anchor="start" x="8" y="-84.3" font-family="Times,serif" font-size="14.00">name :string</text>
<text text-anchor="start" x="8" y="-70.3" font-family="Times,serif" font-size="14.00">completed :boolean</text>
<text text-anchor="start" x="8" y="-56.3" font-family="Times,serif" font-size="14.00">checklist_id :integer</text>
<text text-anchor="start" x="8" y="-42.3" font-family="Times,serif" font-size="14.00">created_at :datetime</text>
<text text-anchor="start" x="8" y="-28.3" font-family="Times,serif" font-size="14.00">updated_at :datetime</text>
</g>
<!-- Checklist&#45;&gt;ChecklistItem -->
<g id="edge1" class="edge"><title>Checklist&#45;&gt;ChecklistItem</title>
<path fill="none" stroke="#dbb760" d="M60.3741,-227.127C59.6366,-201.929 59.5584,-172.185 60.1394,-146.023"/>
<ellipse fill="none" stroke="#dbb760" cx="60.5146" cy="-231.4" rx="4" ry="4"/>
<polygon fill="#dbb760" stroke="#dbb760" points="60.1449,-145.809 64.9041,-135.93 60.2752,-140.811 60.4056,-135.813 60.4056,-135.813 60.4056,-135.813 60.2752,-140.811 55.9071,-135.695 60.1449,-145.809 60.1449,-145.809"/>
</g>
<!-- ChecklistItem&#45;&gt;Checklist -->
<g id="edge2" class="edge"><title>ChecklistItem&#45;&gt;Checklist</title>
<path fill="none" stroke="#f9b30d" d="M72.8237,-143.947C73.456,-170.603 73.3937,-201.26 72.6367,-227.127"/>
<ellipse fill="none" stroke="#f9b30d" cx="72.7126" cy="-139.811" rx="4" ry="4"/>
<ellipse fill="#f9b30d" stroke="#f9b30d" cx="72.4961" cy="-231.4" rx="4" ry="4"/>
</g>
<!-- Comment -->
<g id="node3" class="node"><title>Comment</title>
<path fill="none" stroke="black" d="M189.831,-0.5C189.831,-0.5 329.18,-0.5 329.18,-0.5 335.18,-0.5 341.18,-6.5 341.18,-12.5 341.18,-12.5 341.18,-144.5 341.18,-144.5 341.18,-150.5 335.18,-156.5 329.18,-156.5 329.18,-156.5 189.831,-156.5 189.831,-156.5 183.831,-156.5 177.831,-150.5 177.831,-144.5 177.831,-144.5 177.831,-12.5 177.831,-12.5 177.831,-6.5 183.831,-0.5 189.831,-0.5"/>
<text text-anchor="middle" x="259.505" y="-141.3" font-family="Times,serif" font-size="14.00">Comment</text>
<polyline fill="none" stroke="black" points="177.831,-134.5 341.18,-134.5 "/>
<text text-anchor="start" x="185.831" y="-119.3" font-family="Times,serif" font-size="14.00">id :integer</text>
<text text-anchor="start" x="185.831" y="-105.3" font-family="Times,serif" font-size="14.00">ctext :text</text>
<text text-anchor="start" x="185.831" y="-91.3" font-family="Times,serif" font-size="14.00">task_id :integer</text>
<text text-anchor="start" x="185.831" y="-77.3" font-family="Times,serif" font-size="14.00">user_id :integer</text>
<text text-anchor="start" x="185.831" y="-63.3" font-family="Times,serif" font-size="14.00">created_at :datetime</text>
<text text-anchor="start" x="185.831" y="-49.3" font-family="Times,serif" font-size="14.00">updated_at :datetime</text>
<text text-anchor="start" x="185.831" y="-35.3" font-family="Times,serif" font-size="14.00">comment_type_id :integer</text>
<text text-anchor="start" x="185.831" y="-21.3" font-family="Times,serif" font-size="14.00">before_res :float</text>
<text text-anchor="start" x="185.831" y="-7.3" font-family="Times,serif" font-size="14.00">after_res :float</text>
</g>
<!-- CommentType -->
<g id="node4" class="node"><title>CommentType</title>
<path fill="none" stroke="black" d="M163.042,-235.5C163.042,-235.5 289.969,-235.5 289.969,-235.5 295.969,-235.5 301.969,-241.5 301.969,-247.5 301.969,-247.5 301.969,-323.5 301.969,-323.5 301.969,-329.5 295.969,-335.5 289.969,-335.5 289.969,-335.5 163.042,-335.5 163.042,-335.5 157.042,-335.5 151.042,-329.5 151.042,-323.5 151.042,-323.5 151.042,-247.5 151.042,-247.5 151.042,-241.5 157.042,-235.5 163.042,-235.5"/>
<text text-anchor="middle" x="226.505" y="-320.3" font-family="Times,serif" font-size="14.00">CommentType</text>
<polyline fill="none" stroke="black" points="151.042,-313.5 301.969,-313.5 "/>
<text text-anchor="start" x="159.042" y="-298.3" font-family="Times,serif" font-size="14.00">id :integer</text>
<text text-anchor="start" x="159.042" y="-284.3" font-family="Times,serif" font-size="14.00">name :string</text>
<text text-anchor="start" x="159.042" y="-270.3" font-family="Times,serif" font-size="14.00">created_at :datetime</text>
<text text-anchor="start" x="159.042" y="-256.3" font-family="Times,serif" font-size="14.00">updated_at :datetime</text>
<text text-anchor="start" x="159.042" y="-242.3" font-family="Times,serif" font-size="14.00">comment_switch :string</text>
</g>
<!-- CommentType&#45;&gt;Comment -->
<g id="edge3" class="edge"><title>CommentType&#45;&gt;Comment</title>
<path fill="none" stroke="#3dbe3a" d="M235.683,-227.485C238.717,-208.638 242.165,-187.218 245.478,-166.642"/>
<ellipse fill="none" stroke="#3dbe3a" cx="235.045" cy="-231.448" rx="4.00001" ry="4.00001"/>
<polygon fill="#3dbe3a" stroke="#3dbe3a" points="245.501,-166.497 251.533,-157.339 246.296,-161.561 247.09,-156.624 247.09,-156.624 247.09,-156.624 246.296,-161.561 242.647,-155.909 245.501,-166.497 245.501,-166.497"/>
</g>
<!-- Difficulty -->
<g id="node5" class="node"><title>Difficulty</title>
<path fill="none" stroke="black" d="M534.042,-7.5C534.042,-7.5 646.969,-7.5 646.969,-7.5 652.969,-7.5 658.969,-13.5 658.969,-19.5 658.969,-19.5 658.969,-137.5 658.969,-137.5 658.969,-143.5 652.969,-149.5 646.969,-149.5 646.969,-149.5 534.042,-149.5 534.042,-149.5 528.042,-149.5 522.042,-143.5 522.042,-137.5 522.042,-137.5 522.042,-19.5 522.042,-19.5 522.042,-13.5 528.042,-7.5 534.042,-7.5"/>
<text text-anchor="middle" x="590.505" y="-134.3" font-family="Times,serif" font-size="14.00">Difficulty</text>
<polyline fill="none" stroke="black" points="522.042,-127.5 658.969,-127.5 "/>
<text text-anchor="start" x="530.042" y="-112.3" font-family="Times,serif" font-size="14.00">id :integer</text>
<text text-anchor="start" x="530.042" y="-98.3" font-family="Times,serif" font-size="14.00">user_id :integer</text>
<text text-anchor="start" x="530.042" y="-84.3" font-family="Times,serif" font-size="14.00">difficulty_ref :integer</text>
<text text-anchor="start" x="530.042" y="-70.3" font-family="Times,serif" font-size="14.00">difficulty_value :float</text>
<text text-anchor="start" x="530.042" y="-56.3" font-family="Times,serif" font-size="14.00">created_at :datetime</text>
<text text-anchor="start" x="530.042" y="-42.3" font-family="Times,serif" font-size="14.00">updated_at :datetime</text>
<text text-anchor="start" x="530.042" y="-28.3" font-family="Times,serif" font-size="14.00">name :string</text>
<text text-anchor="start" x="530.042" y="-14.3" font-family="Times,serif" font-size="14.00">name_status :string</text>
</g>
<!-- Goal -->
<g id="node6" class="node"><title>Goal</title>
<path fill="none" stroke="black" d="M241.428,-761.5C241.428,-761.5 353.583,-761.5 353.583,-761.5 359.583,-761.5 365.583,-767.5 365.583,-773.5 365.583,-773.5 365.583,-877.5 365.583,-877.5 365.583,-883.5 359.583,-889.5 353.583,-889.5 353.583,-889.5 241.428,-889.5 241.428,-889.5 235.428,-889.5 229.428,-883.5 229.428,-877.5 229.428,-877.5 229.428,-773.5 229.428,-773.5 229.428,-767.5 235.428,-761.5 241.428,-761.5"/>
<text text-anchor="middle" x="297.505" y="-874.3" font-family="Times,serif" font-size="14.00">Goal</text>
<polyline fill="none" stroke="black" points="229.428,-867.5 365.583,-867.5 "/>
<text text-anchor="start" x="237.428" y="-852.3" font-family="Times,serif" font-size="14.00">id :integer</text>
<text text-anchor="start" x="237.428" y="-838.3" font-family="Times,serif" font-size="14.00">name :string</text>
<text text-anchor="start" x="237.428" y="-824.3" font-family="Times,serif" font-size="14.00">project_id :integer</text>
<text text-anchor="start" x="237.428" y="-810.3" font-family="Times,serif" font-size="14.00">created_at :datetime</text>
<text text-anchor="start" x="237.428" y="-796.3" font-family="Times,serif" font-size="14.00">updated_at :datetime</text>
<text text-anchor="start" x="237.428" y="-782.3" font-family="Times,serif" font-size="14.00">project_list_id :string</text>
<text text-anchor="start" x="237.428" y="-768.3" font-family="Times,serif" font-size="14.00">no_of_tasks :integer</text>
</g>
<!-- Task -->
<g id="node10" class="node"><title>Task</title>
<path fill="none" stroke="black" d="M272.666,-414.5C272.666,-414.5 386.345,-414.5 386.345,-414.5 392.345,-414.5 398.345,-420.5 398.345,-426.5 398.345,-426.5 398.345,-712.5 398.345,-712.5 398.345,-718.5 392.345,-724.5 386.345,-724.5 386.345,-724.5 272.666,-724.5 272.666,-724.5 266.666,-724.5 260.666,-718.5 260.666,-712.5 260.666,-712.5 260.666,-426.5 260.666,-426.5 260.666,-420.5 266.666,-414.5 272.666,-414.5"/>
<text text-anchor="middle" x="329.505" y="-709.3" font-family="Times,serif" font-size="14.00">Task</text>
<polyline fill="none" stroke="black" points="260.666,-702.5 398.345,-702.5 "/>
<text text-anchor="start" x="268.666" y="-687.3" font-family="Times,serif" font-size="14.00">id :integer</text>
<text text-anchor="start" x="268.666" y="-673.3" font-family="Times,serif" font-size="14.00">trello_type :string</text>
<text text-anchor="start" x="268.666" y="-659.3" font-family="Times,serif" font-size="14.00">resindex :float</text>
<text text-anchor="start" x="268.666" y="-645.3" font-family="Times,serif" font-size="14.00">completed :boolean</text>
<text text-anchor="start" x="268.666" y="-631.3" font-family="Times,serif" font-size="14.00">start_date :date</text>
<text text-anchor="start" x="268.666" y="-617.3" font-family="Times,serif" font-size="14.00">end_date :date</text>
<text text-anchor="start" x="268.666" y="-603.3" font-family="Times,serif" font-size="14.00">estimate :float</text>
<text text-anchor="start" x="268.666" y="-589.3" font-family="Times,serif" font-size="14.00">difficulty :integer</text>
<text text-anchor="start" x="268.666" y="-575.3" font-family="Times,serif" font-size="14.00">importance :integer</text>
<text text-anchor="start" x="268.666" y="-561.3" font-family="Times,serif" font-size="14.00">created_at :datetime</text>
<text text-anchor="start" x="268.666" y="-547.3" font-family="Times,serif" font-size="14.00">updated_at :datetime</text>
<text text-anchor="start" x="268.666" y="-533.3" font-family="Times,serif" font-size="14.00">effort :float</text>
<text text-anchor="start" x="268.666" y="-519.3" font-family="Times,serif" font-size="14.00">card_id :string</text>
<text text-anchor="start" x="268.666" y="-505.3" font-family="Times,serif" font-size="14.00">card_name :text</text>
<text text-anchor="start" x="268.666" y="-491.3" font-family="Times,serif" font-size="14.00">card_description :text</text>
<text text-anchor="start" x="268.666" y="-477.3" font-family="Times,serif" font-size="14.00">url :text</text>
<text text-anchor="start" x="268.666" y="-463.3" font-family="Times,serif" font-size="14.00">shortlink :string</text>
<text text-anchor="start" x="268.666" y="-449.3" font-family="Times,serif" font-size="14.00">goal_id :integer</text>
<text text-anchor="start" x="268.666" y="-435.3" font-family="Times,serif" font-size="14.00">project_list_id :string</text>
<text text-anchor="start" x="268.666" y="-421.3" font-family="Times,serif" font-size="14.00">project_id :integer</text>
</g>
<!-- Goal&#45;&gt;Task -->
<g id="edge4" class="edge"><title>Goal&#45;&gt;Task</title>
<path fill="none" stroke="#0bcb82" d="M306.49,-753.182C307.242,-747.218 308.019,-741.05 308.813,-734.747"/>
<ellipse fill="none" stroke="#0bcb82" cx="305.957" cy="-757.418" rx="4.00001" ry="4.00001"/>
<polygon fill="#0bcb82" stroke="#0bcb82" points="308.823,-734.665 314.538,-725.306 309.448,-729.704 310.073,-724.743 310.073,-724.743 310.073,-724.743 309.448,-729.704 305.608,-724.181 308.823,-734.665 308.823,-734.665"/>
</g>
<!-- Importance -->
<g id="node7" class="node"><title>Importance</title>
<path fill="none" stroke="black" d="M689.221,-7.5C689.221,-7.5 813.79,-7.5 813.79,-7.5 819.79,-7.5 825.79,-13.5 825.79,-19.5 825.79,-19.5 825.79,-137.5 825.79,-137.5 825.79,-143.5 819.79,-149.5 813.79,-149.5 813.79,-149.5 689.221,-149.5 689.221,-149.5 683.221,-149.5 677.221,-143.5 677.221,-137.5 677.221,-137.5 677.221,-19.5 677.221,-19.5 677.221,-13.5 683.221,-7.5 689.221,-7.5"/>
<text text-anchor="middle" x="751.505" y="-134.3" font-family="Times,serif" font-size="14.00">Importance</text>
<polyline fill="none" stroke="black" points="677.221,-127.5 825.79,-127.5 "/>
<text text-anchor="start" x="685.221" y="-112.3" font-family="Times,serif" font-size="14.00">id :integer</text>
<text text-anchor="start" x="685.221" y="-98.3" font-family="Times,serif" font-size="14.00">user_id :integer</text>
<text text-anchor="start" x="685.221" y="-84.3" font-family="Times,serif" font-size="14.00">importance_ref :integer</text>
<text text-anchor="start" x="685.221" y="-70.3" font-family="Times,serif" font-size="14.00">importance_value :float</text>
<text text-anchor="start" x="685.221" y="-56.3" font-family="Times,serif" font-size="14.00">created_at :datetime</text>
<text text-anchor="start" x="685.221" y="-42.3" font-family="Times,serif" font-size="14.00">updated_at :datetime</text>
<text text-anchor="start" x="685.221" y="-28.3" font-family="Times,serif" font-size="14.00">name :string</text>
<text text-anchor="start" x="685.221" y="-14.3" font-family="Times,serif" font-size="14.00">name_status :string</text>
</g>
<!-- OauthTable -->
<g id="node8" class="node"><title>OauthTable</title>
<path fill="none" stroke="black" d="M371.162,-14.5C371.162,-14.5 491.849,-14.5 491.849,-14.5 497.849,-14.5 503.849,-20.5 503.849,-26.5 503.849,-26.5 503.849,-130.5 503.849,-130.5 503.849,-136.5 497.849,-142.5 491.849,-142.5 491.849,-142.5 371.162,-142.5 371.162,-142.5 365.162,-142.5 359.162,-136.5 359.162,-130.5 359.162,-130.5 359.162,-26.5 359.162,-26.5 359.162,-20.5 365.162,-14.5 371.162,-14.5"/>
<text text-anchor="middle" x="431.505" y="-127.3" font-family="Times,serif" font-size="14.00">OauthTable</text>
<polyline fill="none" stroke="black" points="359.162,-120.5 503.849,-120.5 "/>
<text text-anchor="start" x="367.162" y="-105.3" font-family="Times,serif" font-size="14.00">id :integer</text>
<text text-anchor="start" x="367.162" y="-91.3" font-family="Times,serif" font-size="14.00">user_id :integer</text>
<text text-anchor="start" x="367.162" y="-77.3" font-family="Times,serif" font-size="14.00">token :string</text>
<text text-anchor="start" x="367.162" y="-63.3" font-family="Times,serif" font-size="14.00">secret :string</text>
<text text-anchor="start" x="367.162" y="-49.3" font-family="Times,serif" font-size="14.00">created_at :datetime</text>
<text text-anchor="start" x="367.162" y="-35.3" font-family="Times,serif" font-size="14.00">updated_at :datetime</text>
<text text-anchor="start" x="367.162" y="-21.3" font-family="Times,serif" font-size="14.00">website_service :string</text>
</g>
<!-- User -->
<g id="node13" class="node"><title>User</title>
<path fill="none" stroke="black" d="M369.204,-193.5C369.204,-193.5 493.807,-193.5 493.807,-193.5 499.807,-193.5 505.807,-199.5 505.807,-205.5 505.807,-205.5 505.807,-365.5 505.807,-365.5 505.807,-371.5 499.807,-377.5 493.807,-377.5 493.807,-377.5 369.204,-377.5 369.204,-377.5 363.204,-377.5 357.204,-371.5 357.204,-365.5 357.204,-365.5 357.204,-205.5 357.204,-205.5 357.204,-199.5 363.204,-193.5 369.204,-193.5"/>
<text text-anchor="middle" x="431.505" y="-362.3" font-family="Times,serif" font-size="14.00">User</text>
<polyline fill="none" stroke="black" points="357.204,-355.5 505.807,-355.5 "/>
<text text-anchor="start" x="365.204" y="-340.3" font-family="Times,serif" font-size="14.00">id :integer</text>
<text text-anchor="start" x="365.204" y="-326.3" font-family="Times,serif" font-size="14.00">first_name :string</text>
<text text-anchor="start" x="365.204" y="-312.3" font-family="Times,serif" font-size="14.00">family_name :string</text>
<text text-anchor="start" x="365.204" y="-298.3" font-family="Times,serif" font-size="14.00">trello :string</text>
<text text-anchor="start" x="365.204" y="-284.3" font-family="Times,serif" font-size="14.00">rescue :string</text>
<text text-anchor="start" x="365.204" y="-270.3" font-family="Times,serif" font-size="14.00">created_at :datetime</text>
<text text-anchor="start" x="365.204" y="-256.3" font-family="Times,serif" font-size="14.00">updated_at :datetime</text>
<text text-anchor="start" x="365.204" y="-242.3" font-family="Times,serif" font-size="14.00">work_session :integer</text>
<text text-anchor="start" x="365.204" y="-228.3" font-family="Times,serif" font-size="14.00">email :string</text>
<text text-anchor="start" x="365.204" y="-214.3" font-family="Times,serif" font-size="14.00">password_digest :string</text>
<text text-anchor="start" x="365.204" y="-200.3" font-family="Times,serif" font-size="14.00">role :string</text>
</g>
<!-- OauthTable&#45;&gt;User -->
<g id="edge5" class="edge"><title>OauthTable&#45;&gt;User</title>
<path fill="none" stroke="#ed7e8b" d="M437.968,-150.753C438.18,-161.937 438.274,-173.671 438.252,-185.346"/>
<ellipse fill="none" stroke="#ed7e8b" cx="437.881" cy="-146.714" rx="4" ry="4"/>
<ellipse fill="#ed7e8b" stroke="#ed7e8b" cx="438.235" cy="-189.39" rx="4" ry="4"/>
</g>
<!-- Project -->
<g id="node9" class="node"><title>Project</title>
<path fill="none" stroke="black" d="M331.214,-940.5C331.214,-940.5 455.797,-940.5 455.797,-940.5 461.797,-940.5 467.797,-946.5 467.797,-952.5 467.797,-952.5 467.797,-1042.5 467.797,-1042.5 467.797,-1048.5 461.797,-1054.5 455.797,-1054.5 455.797,-1054.5 331.214,-1054.5 331.214,-1054.5 325.214,-1054.5 319.214,-1048.5 319.214,-1042.5 319.214,-1042.5 319.214,-952.5 319.214,-952.5 319.214,-946.5 325.214,-940.5 331.214,-940.5"/>
<text text-anchor="middle" x="393.505" y="-1039.3" font-family="Times,serif" font-size="14.00">Project</text>
<polyline fill="none" stroke="black" points="319.214,-1032.5 467.797,-1032.5 "/>
<text text-anchor="start" x="327.214" y="-1017.3" font-family="Times,serif" font-size="14.00">id :integer</text>
<text text-anchor="start" x="327.214" y="-1003.3" font-family="Times,serif" font-size="14.00">name :string</text>
<text text-anchor="start" x="327.214" y="-989.3" font-family="Times,serif" font-size="14.00">created_at :datetime</text>
<text text-anchor="start" x="327.214" y="-975.3" font-family="Times,serif" font-size="14.00">updated_at :datetime</text>
<text text-anchor="start" x="327.214" y="-961.3" font-family="Times,serif" font-size="14.00">trello_project_id :string</text>
<text text-anchor="start" x="327.214" y="-947.3" font-family="Times,serif" font-size="14.00">no_of_goals :integer</text>
</g>
<!-- Project&#45;&gt;Goal -->
<g id="edge6" class="edge"><title>Project&#45;&gt;Goal</title>
<path fill="none" stroke="#5ee3ce" d="M357.665,-933.033C351.281,-921.727 344.589,-909.878 338.084,-898.358"/>
<ellipse fill="none" stroke="#5ee3ce" cx="359.838" cy="-936.881" rx="4.00002" ry="4.00002"/>
<polygon fill="#5ee3ce" stroke="#5ee3ce" points="338.071,-898.336 337.073,-887.415 335.613,-893.982 333.154,-889.628 333.154,-889.628 333.154,-889.628 335.613,-893.982 329.236,-891.841 338.071,-898.336 338.071,-898.336"/>
</g>
<!-- Project&#45;&gt;Task -->
<g id="edge7" class="edge"><title>Project&#45;&gt;Task</title>
<path fill="none" stroke="#4956b1" d="M390.939,-932.016C388.409,-884.512 383.556,-818.454 374.505,-761 373.141,-752.342 371.596,-743.494 369.918,-734.583"/>
<ellipse fill="none" stroke="#4956b1" cx="391.148" cy="-936.075" rx="4" ry="4"/>
<polygon fill="#4956b1" stroke="#4956b1" points="369.868,-734.321 372.39,-723.649 368.92,-729.412 367.971,-724.503 367.971,-724.503 367.971,-724.503 368.92,-729.412 363.553,-725.356 369.868,-734.321 369.868,-734.321"/>
</g>
<!-- Project&#45;&gt;User -->
<g id="edge8" class="edge"><title>Project&#45;&gt;User</title>
<path fill="none" stroke="#1e894b" d="M397.039,-930.476C403.702,-805.982 418.162,-535.809 426.07,-388.05"/>
<polygon fill="#1e894b" stroke="#1e894b" points="397.038,-930.505 392.009,-940.251 396.77,-935.498 396.503,-940.491 396.503,-940.491 396.503,-940.491 396.77,-935.498 400.997,-940.732 397.038,-930.505 397.038,-930.505"/>
<polygon fill="#1e894b" stroke="#1e894b" points="426.094,-387.613 431.122,-377.868 426.361,-382.62 426.628,-377.627 426.628,-377.627 426.628,-377.627 426.361,-382.62 422.135,-377.386 426.094,-387.613 426.094,-387.613"/>
</g>
<!-- Task&#45;&gt;Checklist -->
<g id="edge11" class="edge"><title>Task&#45;&gt;Checklist</title>
<path fill="none" stroke="#a622a3" d="M254.62,-495.08C219.831,-460.252 178.332,-417.663 142.505,-378 132.608,-367.043 122.311,-355.069 112.609,-343.501"/>
<ellipse fill="none" stroke="#a622a3" cx="257.759" cy="-498.217" rx="4.00002" ry="4.00002"/>
<polygon fill="#a622a3" stroke="#a622a3" points="112.404,-343.255 109.456,-332.692 109.202,-339.414 106,-335.574 106,-335.574 106,-335.574 109.202,-339.414 102.544,-338.456 112.404,-343.255 112.404,-343.255"/>
</g>
<!-- Task&#45;&gt;Comment -->
<g id="edge10" class="edge"><title>Task&#45;&gt;Comment</title>
<path fill="none" stroke="#ebbba5" d="M334.358,-406.019C332.991,-339.226 327.034,-261.602 310.505,-193 308.369,-184.132 305.549,-175.101 302.331,-166.203"/>
<ellipse fill="none" stroke="#ebbba5" cx="334.431" cy="-410.11" rx="4" ry="4"/>
<polygon fill="#ebbba5" stroke="#ebbba5" points="302.24,-165.963 302.902,-155.017 300.467,-161.288 298.694,-156.613 298.694,-156.613 298.694,-156.613 300.467,-161.288 294.487,-158.208 302.24,-165.963 302.24,-165.963"/>
</g>
<!-- Task&#45;&gt;User -->
<g id="edge9" class="edge"><title>Task&#45;&gt;User</title>
<path fill="none" stroke="#79ab8f" d="M388.757,-404.686C390.885,-398.802 392.994,-392.973 395.067,-387.24"/>
<polygon fill="#79ab8f" stroke="#79ab8f" points="388.682,-404.895 381.049,-412.768 386.981,-409.597 385.28,-414.298 385.28,-414.298 385.28,-414.298 386.981,-409.597 389.512,-415.829 388.682,-404.895 388.682,-404.895"/>
<polygon fill="#79ab8f" stroke="#79ab8f" points="395.12,-387.096 402.753,-379.223 396.82,-382.394 398.521,-377.692 398.521,-377.692 398.521,-377.692 396.82,-382.394 394.289,-376.162 395.12,-387.096 395.12,-387.096"/>
</g>
<!-- TimeRecord -->
<g id="node11" class="node"><title>TimeRecord</title>
<path fill="none" stroke="black" d="M498,-926.5C498,-926.5 607.011,-926.5 607.011,-926.5 613.011,-926.5 619.011,-932.5 619.011,-938.5 619.011,-938.5 619.011,-1056.5 619.011,-1056.5 619.011,-1062.5 613.011,-1068.5 607.011,-1068.5 607.011,-1068.5 498,-1068.5 498,-1068.5 492,-1068.5 486,-1062.5 486,-1056.5 486,-1056.5 486,-938.5 486,-938.5 486,-932.5 492,-926.5 498,-926.5"/>
<text text-anchor="middle" x="552.505" y="-1053.3" font-family="Times,serif" font-size="14.00">TimeRecord</text>
<polyline fill="none" stroke="black" points="486,-1046.5 619.011,-1046.5 "/>
<text text-anchor="start" x="494" y="-1031.3" font-family="Times,serif" font-size="14.00">id :integer</text>
<text text-anchor="start" x="494" y="-1017.3" font-family="Times,serif" font-size="14.00">user_id :integer</text>
<text text-anchor="start" x="494" y="-1003.3" font-family="Times,serif" font-size="14.00">task_id :integer</text>
<text text-anchor="start" x="494" y="-989.3" font-family="Times,serif" font-size="14.00">created_at :datetime</text>
<text text-anchor="start" x="494" y="-975.3" font-family="Times,serif" font-size="14.00">updated_at :datetime</text>
<text text-anchor="start" x="494" y="-961.3" font-family="Times,serif" font-size="14.00">state :string</text>
<text text-anchor="start" x="494" y="-947.3" font-family="Times,serif" font-size="14.00">hours :integer</text>
<text text-anchor="start" x="494" y="-933.3" font-family="Times,serif" font-size="14.00">minutes :integer</text>
</g>
<!-- Trello -->
<g id="node12" class="node"><title>Trello</title>
<path fill="none" stroke="black" d="M649,-961.5C649,-961.5 758.011,-961.5 758.011,-961.5 764.011,-961.5 770.011,-967.5 770.011,-973.5 770.011,-973.5 770.011,-1021.5 770.011,-1021.5 770.011,-1027.5 764.011,-1033.5 758.011,-1033.5 758.011,-1033.5 649,-1033.5 649,-1033.5 643,-1033.5 637,-1027.5 637,-1021.5 637,-1021.5 637,-973.5 637,-973.5 637,-967.5 643,-961.5 649,-961.5"/>
<text text-anchor="middle" x="703.505" y="-1018.3" font-family="Times,serif" font-size="14.00">Trello</text>
<polyline fill="none" stroke="black" points="637,-1011.5 770.011,-1011.5 "/>
<text text-anchor="start" x="645" y="-996.3" font-family="Times,serif" font-size="14.00">id :integer</text>
<text text-anchor="start" x="645" y="-982.3" font-family="Times,serif" font-size="14.00">created_at :datetime</text>
<text text-anchor="start" x="645" y="-968.3" font-family="Times,serif" font-size="14.00">updated_at :datetime</text>
</g>
<!-- User&#45;&gt;Comment -->
<g id="edge12" class="edge"><title>User&#45;&gt;Comment</title>
<path fill="none" stroke="#b22971" d="M351.684,-189.365C344.743,-181.091 337.747,-172.753 330.879,-164.567"/>
<ellipse fill="none" stroke="#b22971" cx="354.493" cy="-192.712" rx="4.00002" ry="4.00002"/>
<polygon fill="#b22971" stroke="#b22971" points="330.767,-164.434 327.787,-153.881 327.553,-160.604 324.34,-156.773 324.34,-156.773 324.34,-156.773 327.553,-160.604 320.892,-159.666 330.767,-164.434 330.767,-164.434"/>
</g>
<!-- User&#45;&gt;Difficulty -->
<g id="edge15" class="edge"><title>User&#45;&gt;Difficulty</title>
<path fill="none" stroke="#21ef77" d="M507.244,-186.85C514.838,-177.059 522.477,-167.209 529.885,-157.659"/>
<ellipse fill="none" stroke="#21ef77" cx="504.623" cy="-190.229" rx="4.00002" ry="4.00002"/>
<polygon fill="#21ef77" stroke="#21ef77" points="529.918,-157.616 539.602,-152.472 532.982,-153.665 536.046,-149.714 536.046,-149.714 536.046,-149.714 532.982,-153.665 532.491,-146.956 529.918,-157.616 529.918,-157.616"/>
</g>
<!-- User&#45;&gt;Importance -->
<g id="edge14" class="edge"><title>User&#45;&gt;Importance</title>
<path fill="none" stroke="#345597" d="M513.228,-246.685C560.085,-223.476 619.035,-191.622 667.505,-157 668.01,-156.64 668.515,-156.276 669.02,-155.911"/>
<ellipse fill="none" stroke="#345597" cx="509.404" cy="-248.568" rx="4.00002" ry="4.00002"/>
<polygon fill="#345597" stroke="#345597" points="669.198,-155.777 679.898,-153.373 673.197,-152.775 677.196,-149.774 677.196,-149.774 677.196,-149.774 673.197,-152.775 674.495,-146.175 669.198,-155.777 669.198,-155.777"/>
</g>
<!-- User&#45;&gt;OauthTable -->
<g id="edge13" class="edge"><title>User&#45;&gt;OauthTable</title>
<path fill="none" stroke="#1a155b" d="M424.759,-185.346C424.738,-174.351 424.82,-163.304 425.006,-152.713"/>
<ellipse fill="none" stroke="#1a155b" cx="424.776" cy="-189.39" rx="4" ry="4"/>
<polygon fill="#1a155b" stroke="#1a155b" points="425.006,-152.712 429.716,-142.809 425.112,-147.713 425.217,-142.714 425.217,-142.714 425.217,-142.714 425.112,-147.713 420.718,-142.62 425.006,-152.712 425.006,-152.712"/>
</g>
</g>
</svg>
