<?xml version="1.0" encoding="UTF-8" standalone="no"?>
<!DOCTYPE svg PUBLIC "-//W3C//DTD SVG 1.1//EN"
 "http://www.w3.org/Graphics/SVG/1.1/DTD/svg11.dtd">
<!-- Generated by graphviz version 2.38.0 (20140413.2041)
 -->
<!-- Title: models_diagram Pages: 1 -->
<svg width="975pt" height="1150pt"
 viewBox="0.00 0.00 974.79 1150.00" xmlns="http://www.w3.org/2000/svg" xmlns:xlink="http://www.w3.org/1999/xlink">
<g id="graph0" class="graph" transform="scale(1 1) rotate(0) translate(4 1146)">
<title>models_diagram</title>
<polygon fill="white" stroke="none" points="-4,4 -4,-1146 970.79,-1146 970.79,4 -4,4"/>
<!-- Checklist -->
<g id="node1" class="node"><title>Checklist</title>
<path fill="none" stroke="black" d="M12,-277.5C12,-277.5 121.011,-277.5 121.011,-277.5 127.011,-277.5 133.011,-283.5 133.011,-289.5 133.011,-289.5 133.011,-365.5 133.011,-365.5 133.011,-371.5 127.011,-377.5 121.011,-377.5 121.011,-377.5 12,-377.5 12,-377.5 6,-377.5 0,-371.5 0,-365.5 0,-365.5 0,-289.5 0,-289.5 0,-283.5 6,-277.5 12,-277.5"/>
<text text-anchor="middle" x="66.5054" y="-362.3" font-family="Times,serif" font-size="14.00">Checklist</text>
<polyline fill="none" stroke="black" points="0,-355.5 133.011,-355.5 "/>
<text text-anchor="start" x="8" y="-340.3" font-family="Times,serif" font-size="14.00">id :integer</text>
<text text-anchor="start" x="8" y="-326.3" font-family="Times,serif" font-size="14.00">name :string</text>
<text text-anchor="start" x="8" y="-312.3" font-family="Times,serif" font-size="14.00">task_id :integer</text>
<text text-anchor="start" x="8" y="-298.3" font-family="Times,serif" font-size="14.00">created_at :datetime</text>
<text text-anchor="start" x="8" y="-284.3" font-family="Times,serif" font-size="14.00">updated_at :datetime</text>
</g>
<!-- ChecklistItem -->
<g id="node2" class="node"><title>ChecklistItem</title>
<path fill="none" stroke="black" d="M12,-21.5C12,-21.5 121.011,-21.5 121.011,-21.5 127.011,-21.5 133.011,-27.5 133.011,-33.5 133.011,-33.5 133.011,-123.5 133.011,-123.5 133.011,-129.5 127.011,-135.5 121.011,-135.5 121.011,-135.5 12,-135.5 12,-135.5 6,-135.5 0,-129.5 0,-123.5 0,-123.5 0,-33.5 0,-33.5 0,-27.5 6,-21.5 12,-21.5"/>
<text text-anchor="middle" x="66.5054" y="-120.3" font-family="Times,serif" font-size="14.00">ChecklistItem</text>
<polyline fill="none" stroke="black" points="0,-113.5 133.011,-113.5 "/>
<text text-anchor="start" x="8" y="-98.3" font-family="Times,serif" font-size="14.00">id :integer</text>
<text text-anchor="start" x="8" y="-84.3" font-family="Times,serif" font-size="14.00">name :string</text>
<text text-anchor="start" x="8" y="-70.3" font-family="Times,serif" font-size="14.00">completed :boolean</text>
<text text-anchor="start" x="8" y="-56.3" font-family="Times,serif" font-size="14.00">checklist_id :integer</text>
<text text-anchor="start" x="8" y="-42.3" font-family="Times,serif" font-size="14.00">created_at :datetime</text>
<text text-anchor="start" x="8" y="-28.3" font-family="Times,serif" font-size="14.00">updated_at :datetime</text>
</g>
<!-- Checklist&#45;&gt;ChecklistItem -->
<g id="edge1" class="edge"><title>Checklist&#45;&gt;ChecklistItem</title>
<path fill="none" stroke="#330403" d="M60.7077,-269.31C59.5338,-232.475 59.4452,-184.454 60.4418,-145.929"/>
<ellipse fill="none" stroke="#330403" cx="60.8507" cy="-273.408" rx="4" ry="4"/>
<polygon fill="#330403" stroke="#330403" points="60.4443,-145.84 65.233,-135.975 60.5896,-140.842 60.7349,-135.844 60.7349,-135.844 60.7349,-135.844 60.5896,-140.842 56.2368,-135.713 60.4443,-145.84 60.4443,-145.84"/>
</g>
<!-- ChecklistItem&#45;&gt;Checklist -->
<g id="edge2" class="edge"><title>ChecklistItem&#45;&gt;Checklist</title>
<path fill="none" stroke="#0447bc" d="M72.5172,-143.971C73.5683,-182.816 73.4969,-231.848 72.303,-269.31"/>
<ellipse fill="none" stroke="#0447bc" cx="72.3946" cy="-139.842" rx="4" ry="4"/>
<ellipse fill="#0447bc" stroke="#0447bc" cx="72.16" cy="-273.408" rx="4" ry="4"/>
</g>
<!-- Comment -->
<g id="node3" class="node"><title>Comment</title>
<path fill="none" stroke="black" d="M169.831,-0.5C169.831,-0.5 309.18,-0.5 309.18,-0.5 315.18,-0.5 321.18,-6.5 321.18,-12.5 321.18,-12.5 321.18,-144.5 321.18,-144.5 321.18,-150.5 315.18,-156.5 309.18,-156.5 309.18,-156.5 169.831,-156.5 169.831,-156.5 163.831,-156.5 157.831,-150.5 157.831,-144.5 157.831,-144.5 157.831,-12.5 157.831,-12.5 157.831,-6.5 163.831,-0.5 169.831,-0.5"/>
<text text-anchor="middle" x="239.505" y="-141.3" font-family="Times,serif" font-size="14.00">Comment</text>
<polyline fill="none" stroke="black" points="157.831,-134.5 321.18,-134.5 "/>
<text text-anchor="start" x="165.831" y="-119.3" font-family="Times,serif" font-size="14.00">id :integer</text>
<text text-anchor="start" x="165.831" y="-105.3" font-family="Times,serif" font-size="14.00">ctext :text</text>
<text text-anchor="start" x="165.831" y="-91.3" font-family="Times,serif" font-size="14.00">task_id :integer</text>
<text text-anchor="start" x="165.831" y="-77.3" font-family="Times,serif" font-size="14.00">user_id :integer</text>
<text text-anchor="start" x="165.831" y="-63.3" font-family="Times,serif" font-size="14.00">created_at :datetime</text>
<text text-anchor="start" x="165.831" y="-49.3" font-family="Times,serif" font-size="14.00">updated_at :datetime</text>
<text text-anchor="start" x="165.831" y="-35.3" font-family="Times,serif" font-size="14.00">comment_type_id :integer</text>
<text text-anchor="start" x="165.831" y="-21.3" font-family="Times,serif" font-size="14.00">before_res :float</text>
<text text-anchor="start" x="165.831" y="-7.3" font-family="Times,serif" font-size="14.00">after_res :float</text>
</g>
<!-- CommentType -->
<g id="node4" class="node"><title>CommentType</title>
<path fill="none" stroke="black" d="M163.042,-277.5C163.042,-277.5 289.969,-277.5 289.969,-277.5 295.969,-277.5 301.969,-283.5 301.969,-289.5 301.969,-289.5 301.969,-365.5 301.969,-365.5 301.969,-371.5 295.969,-377.5 289.969,-377.5 289.969,-377.5 163.042,-377.5 163.042,-377.5 157.042,-377.5 151.042,-371.5 151.042,-365.5 151.042,-365.5 151.042,-289.5 151.042,-289.5 151.042,-283.5 157.042,-277.5 163.042,-277.5"/>
<text text-anchor="middle" x="226.505" y="-362.3" font-family="Times,serif" font-size="14.00">CommentType</text>
<polyline fill="none" stroke="black" points="151.042,-355.5 301.969,-355.5 "/>
<text text-anchor="start" x="159.042" y="-340.3" font-family="Times,serif" font-size="14.00">id :integer</text>
<text text-anchor="start" x="159.042" y="-326.3" font-family="Times,serif" font-size="14.00">name :string</text>
<text text-anchor="start" x="159.042" y="-312.3" font-family="Times,serif" font-size="14.00">created_at :datetime</text>
<text text-anchor="start" x="159.042" y="-298.3" font-family="Times,serif" font-size="14.00">updated_at :datetime</text>
<text text-anchor="start" x="159.042" y="-284.3" font-family="Times,serif" font-size="14.00">comment_switch :string</text>
</g>
<!-- CommentType&#45;&gt;Comment -->
<g id="edge3" class="edge"><title>CommentType&#45;&gt;Comment</title>
<path fill="none" stroke="#90a060" d="M229.526,-269.11C231.121,-238.805 233.112,-200.968 234.896,-167.082"/>
<ellipse fill="none" stroke="#90a060" cx="229.3" cy="-273.411" rx="4" ry="4"/>
<polygon fill="#90a060" stroke="#90a060" points="234.916,-166.692 239.936,-156.942 235.179,-161.699 235.442,-156.706 235.442,-156.706 235.442,-156.706 235.179,-161.699 230.948,-156.469 234.916,-166.692 234.916,-166.692"/>
</g>
<!-- Difficulty -->
<g id="node5" class="node"><title>Difficulty</title>
<path fill="none" stroke="black" d="M675.042,-7.5C675.042,-7.5 787.969,-7.5 787.969,-7.5 793.969,-7.5 799.969,-13.5 799.969,-19.5 799.969,-19.5 799.969,-137.5 799.969,-137.5 799.969,-143.5 793.969,-149.5 787.969,-149.5 787.969,-149.5 675.042,-149.5 675.042,-149.5 669.042,-149.5 663.042,-143.5 663.042,-137.5 663.042,-137.5 663.042,-19.5 663.042,-19.5 663.042,-13.5 669.042,-7.5 675.042,-7.5"/>
<text text-anchor="middle" x="731.505" y="-134.3" font-family="Times,serif" font-size="14.00">Difficulty</text>
<polyline fill="none" stroke="black" points="663.042,-127.5 799.969,-127.5 "/>
<text text-anchor="start" x="671.042" y="-112.3" font-family="Times,serif" font-size="14.00">id :integer</text>
<text text-anchor="start" x="671.042" y="-98.3" font-family="Times,serif" font-size="14.00">user_id :integer</text>
<text text-anchor="start" x="671.042" y="-84.3" font-family="Times,serif" font-size="14.00">difficulty_ref :integer</text>
<text text-anchor="start" x="671.042" y="-70.3" font-family="Times,serif" font-size="14.00">difficulty_value :float</text>
<text text-anchor="start" x="671.042" y="-56.3" font-family="Times,serif" font-size="14.00">created_at :datetime</text>
<text text-anchor="start" x="671.042" y="-42.3" font-family="Times,serif" font-size="14.00">updated_at :datetime</text>
<text text-anchor="start" x="671.042" y="-28.3" font-family="Times,serif" font-size="14.00">name :string</text>
<text text-anchor="start" x="671.042" y="-14.3" font-family="Times,serif" font-size="14.00">name_status :string</text>
</g>
<!-- Goal -->
<g id="node6" class="node"><title>Goal</title>
<path fill="none" stroke="black" d="M291.428,-833.5C291.428,-833.5 403.583,-833.5 403.583,-833.5 409.583,-833.5 415.583,-839.5 415.583,-845.5 415.583,-845.5 415.583,-949.5 415.583,-949.5 415.583,-955.5 409.583,-961.5 403.583,-961.5 403.583,-961.5 291.428,-961.5 291.428,-961.5 285.428,-961.5 279.428,-955.5 279.428,-949.5 279.428,-949.5 279.428,-845.5 279.428,-845.5 279.428,-839.5 285.428,-833.5 291.428,-833.5"/>
<text text-anchor="middle" x="347.505" y="-946.3" font-family="Times,serif" font-size="14.00">Goal</text>
<polyline fill="none" stroke="black" points="279.428,-939.5 415.583,-939.5 "/>
<text text-anchor="start" x="287.428" y="-924.3" font-family="Times,serif" font-size="14.00">id :integer</text>
<text text-anchor="start" x="287.428" y="-910.3" font-family="Times,serif" font-size="14.00">name :string</text>
<text text-anchor="start" x="287.428" y="-896.3" font-family="Times,serif" font-size="14.00">project_id :integer</text>
<text text-anchor="start" x="287.428" y="-882.3" font-family="Times,serif" font-size="14.00">created_at :datetime</text>
<text text-anchor="start" x="287.428" y="-868.3" font-family="Times,serif" font-size="14.00">updated_at :datetime</text>
<text text-anchor="start" x="287.428" y="-854.3" font-family="Times,serif" font-size="14.00">project_list_id :string</text>
<text text-anchor="start" x="287.428" y="-840.3" font-family="Times,serif" font-size="14.00">no_of_tasks :integer</text>
</g>
<!-- Task -->
<g id="node11" class="node"><title>Task</title>
<path fill="none" stroke="black" d="M290.666,-485.5C290.666,-485.5 404.345,-485.5 404.345,-485.5 410.345,-485.5 416.345,-491.5 416.345,-497.5 416.345,-497.5 416.345,-783.5 416.345,-783.5 416.345,-789.5 410.345,-795.5 404.345,-795.5 404.345,-795.5 290.666,-795.5 290.666,-795.5 284.666,-795.5 278.666,-789.5 278.666,-783.5 278.666,-783.5 278.666,-497.5 278.666,-497.5 278.666,-491.5 284.666,-485.5 290.666,-485.5"/>
<text text-anchor="middle" x="347.505" y="-780.3" font-family="Times,serif" font-size="14.00">Task</text>
<polyline fill="none" stroke="black" points="278.666,-773.5 416.345,-773.5 "/>
<text text-anchor="start" x="286.666" y="-758.3" font-family="Times,serif" font-size="14.00">id :integer</text>
<text text-anchor="start" x="286.666" y="-744.3" font-family="Times,serif" font-size="14.00">trello_type :string</text>
<text text-anchor="start" x="286.666" y="-730.3" font-family="Times,serif" font-size="14.00">resindex :float</text>
<text text-anchor="start" x="286.666" y="-716.3" font-family="Times,serif" font-size="14.00">completed :boolean</text>
<text text-anchor="start" x="286.666" y="-702.3" font-family="Times,serif" font-size="14.00">start_date :date</text>
<text text-anchor="start" x="286.666" y="-688.3" font-family="Times,serif" font-size="14.00">end_date :date</text>
<text text-anchor="start" x="286.666" y="-674.3" font-family="Times,serif" font-size="14.00">estimate :float</text>
<text text-anchor="start" x="286.666" y="-660.3" font-family="Times,serif" font-size="14.00">difficulty :integer</text>
<text text-anchor="start" x="286.666" y="-646.3" font-family="Times,serif" font-size="14.00">importance :integer</text>
<text text-anchor="start" x="286.666" y="-632.3" font-family="Times,serif" font-size="14.00">created_at :datetime</text>
<text text-anchor="start" x="286.666" y="-618.3" font-family="Times,serif" font-size="14.00">updated_at :datetime</text>
<text text-anchor="start" x="286.666" y="-604.3" font-family="Times,serif" font-size="14.00">effort :float</text>
<text text-anchor="start" x="286.666" y="-590.3" font-family="Times,serif" font-size="14.00">card_id :string</text>
<text text-anchor="start" x="286.666" y="-576.3" font-family="Times,serif" font-size="14.00">card_name :text</text>
<text text-anchor="start" x="286.666" y="-562.3" font-family="Times,serif" font-size="14.00">card_description :text</text>
<text text-anchor="start" x="286.666" y="-548.3" font-family="Times,serif" font-size="14.00">url :text</text>
<text text-anchor="start" x="286.666" y="-534.3" font-family="Times,serif" font-size="14.00">shortlink :string</text>
<text text-anchor="start" x="286.666" y="-520.3" font-family="Times,serif" font-size="14.00">goal_id :integer</text>
<text text-anchor="start" x="286.666" y="-506.3" font-family="Times,serif" font-size="14.00">project_list_id :string</text>
<text text-anchor="start" x="286.666" y="-492.3" font-family="Times,serif" font-size="14.00">project_id :integer</text>
</g>
<!-- Goal&#45;&gt;Task -->
<g id="edge4" class="edge"><title>Goal&#45;&gt;Task</title>
<path fill="none" stroke="#a0d710" d="M347.505,-825.3C347.505,-819.097 347.505,-812.671 347.505,-806.102"/>
<ellipse fill="none" stroke="#a0d710" cx="347.505" cy="-829.466" rx="4" ry="4"/>
<polygon fill="#a0d710" stroke="#a0d710" points="347.505,-805.671 352.005,-795.671 347.505,-800.671 347.505,-795.671 347.505,-795.671 347.505,-795.671 347.505,-800.671 343.005,-795.672 347.505,-805.671 347.505,-805.671"/>
</g>
<!-- Importance -->
<g id="node7" class="node"><title>Importance</title>
<path fill="none" stroke="black" d="M830.221,-7.5C830.221,-7.5 954.79,-7.5 954.79,-7.5 960.79,-7.5 966.79,-13.5 966.79,-19.5 966.79,-19.5 966.79,-137.5 966.79,-137.5 966.79,-143.5 960.79,-149.5 954.79,-149.5 954.79,-149.5 830.221,-149.5 830.221,-149.5 824.221,-149.5 818.221,-143.5 818.221,-137.5 818.221,-137.5 818.221,-19.5 818.221,-19.5 818.221,-13.5 824.221,-7.5 830.221,-7.5"/>
<text text-anchor="middle" x="892.505" y="-134.3" font-family="Times,serif" font-size="14.00">Importance</text>
<polyline fill="none" stroke="black" points="818.221,-127.5 966.79,-127.5 "/>
<text text-anchor="start" x="826.221" y="-112.3" font-family="Times,serif" font-size="14.00">id :integer</text>
<text text-anchor="start" x="826.221" y="-98.3" font-family="Times,serif" font-size="14.00">user_id :integer</text>
<text text-anchor="start" x="826.221" y="-84.3" font-family="Times,serif" font-size="14.00">importance_ref :integer</text>
<text text-anchor="start" x="826.221" y="-70.3" font-family="Times,serif" font-size="14.00">importance_value :float</text>
<text text-anchor="start" x="826.221" y="-56.3" font-family="Times,serif" font-size="14.00">created_at :datetime</text>
<text text-anchor="start" x="826.221" y="-42.3" font-family="Times,serif" font-size="14.00">updated_at :datetime</text>
<text text-anchor="start" x="826.221" y="-28.3" font-family="Times,serif" font-size="14.00">name :string</text>
<text text-anchor="start" x="826.221" y="-14.3" font-family="Times,serif" font-size="14.00">name_status :string</text>
</g>
<!-- Invitation -->
<g id="node8" class="node"><title>Invitation</title>
<path fill="none" stroke="black" d="M351.331,-14.5C351.331,-14.5 469.68,-14.5 469.68,-14.5 475.68,-14.5 481.68,-20.5 481.68,-26.5 481.68,-26.5 481.68,-130.5 481.68,-130.5 481.68,-136.5 475.68,-142.5 469.68,-142.5 469.68,-142.5 351.331,-142.5 351.331,-142.5 345.331,-142.5 339.331,-136.5 339.331,-130.5 339.331,-130.5 339.331,-26.5 339.331,-26.5 339.331,-20.5 345.331,-14.5 351.331,-14.5"/>
<text text-anchor="middle" x="410.505" y="-127.3" font-family="Times,serif" font-size="14.00">Invitation</text>
<polyline fill="none" stroke="black" points="339.331,-120.5 481.68,-120.5 "/>
<text text-anchor="start" x="347.331" y="-105.3" font-family="Times,serif" font-size="14.00">id :integer</text>
<text text-anchor="start" x="347.331" y="-91.3" font-family="Times,serif" font-size="14.00">sender_id :integer</text>
<text text-anchor="start" x="347.331" y="-77.3" font-family="Times,serif" font-size="14.00">recipient_email :string</text>
<text text-anchor="start" x="347.331" y="-63.3" font-family="Times,serif" font-size="14.00">token :string</text>
<text text-anchor="start" x="347.331" y="-49.3" font-family="Times,serif" font-size="14.00">sent_at :datetime</text>
<text text-anchor="start" x="347.331" y="-35.3" font-family="Times,serif" font-size="14.00">created_at :datetime</text>
<text text-anchor="start" x="347.331" y="-21.3" font-family="Times,serif" font-size="14.00">updated_at :datetime</text>
</g>
<!-- User -->
<g id="node14" class="node"><title>User</title>
<path fill="none" stroke="black" d="M409.228,-207.5C409.228,-207.5 589.783,-207.5 589.783,-207.5 595.783,-207.5 601.783,-213.5 601.783,-219.5 601.783,-219.5 601.783,-435.5 601.783,-435.5 601.783,-441.5 595.783,-447.5 589.783,-447.5 589.783,-447.5 409.228,-447.5 409.228,-447.5 403.228,-447.5 397.228,-441.5 397.228,-435.5 397.228,-435.5 397.228,-219.5 397.228,-219.5 397.228,-213.5 403.228,-207.5 409.228,-207.5"/>
<text text-anchor="middle" x="499.505" y="-432.3" font-family="Times,serif" font-size="14.00">User</text>
<polyline fill="none" stroke="black" points="397.228,-425.5 601.783,-425.5 "/>
<text text-anchor="start" x="405.228" y="-410.3" font-family="Times,serif" font-size="14.00">id :integer</text>
<text text-anchor="start" x="405.228" y="-396.3" font-family="Times,serif" font-size="14.00">first_name :string</text>
<text text-anchor="start" x="405.228" y="-382.3" font-family="Times,serif" font-size="14.00">family_name :string</text>
<text text-anchor="start" x="405.228" y="-368.3" font-family="Times,serif" font-size="14.00">trello :string</text>
<text text-anchor="start" x="405.228" y="-354.3" font-family="Times,serif" font-size="14.00">rescue :string</text>
<text text-anchor="start" x="405.228" y="-340.3" font-family="Times,serif" font-size="14.00">created_at :datetime</text>
<text text-anchor="start" x="405.228" y="-326.3" font-family="Times,serif" font-size="14.00">updated_at :datetime</text>
<text text-anchor="start" x="405.228" y="-312.3" font-family="Times,serif" font-size="14.00">work_session :integer</text>
<text text-anchor="start" x="405.228" y="-298.3" font-family="Times,serif" font-size="14.00">email :string</text>
<text text-anchor="start" x="405.228" y="-284.3" font-family="Times,serif" font-size="14.00">password_digest :string</text>
<text text-anchor="start" x="405.228" y="-270.3" font-family="Times,serif" font-size="14.00">role :string</text>
<text text-anchor="start" x="405.228" y="-256.3" font-family="Times,serif" font-size="14.00">password_reset_token :string</text>
<text text-anchor="start" x="405.228" y="-242.3" font-family="Times,serif" font-size="14.00">password_reset_sent_at :datetime</text>
<text text-anchor="start" x="405.228" y="-228.3" font-family="Times,serif" font-size="14.00">invitation_id :integer</text>
<text text-anchor="start" x="405.228" y="-214.3" font-family="Times,serif" font-size="14.00">invitation_limit :integer</text>
</g>
<!-- Invitation&#45;&gt;User -->
<g id="edge5" class="edge"><title>Invitation&#45;&gt;User</title>
<path fill="none" stroke="#3c2e65" d="M464.946,-149.539C469.757,-157.822 474.089,-166.397 477.505,-175 480.622,-182.849 483.304,-191.083 485.611,-199.486"/>
<ellipse fill="none" stroke="#3c2e65" cx="462.864" cy="-146.083" rx="4.00002" ry="4.00002"/>
<ellipse fill="#3c2e65" stroke="#3c2e65" cx="486.62" cy="-203.373" rx="4.00001" ry="4.00001"/>
<text text-anchor="middle" x="506.992" y="-177.8" font-family="Times,serif" font-size="14.00">recipient</text>
</g>
<!-- OauthTable -->
<g id="node9" class="node"><title>OauthTable</title>
<path fill="none" stroke="black" d="M512.162,-14.5C512.162,-14.5 632.849,-14.5 632.849,-14.5 638.849,-14.5 644.849,-20.5 644.849,-26.5 644.849,-26.5 644.849,-130.5 644.849,-130.5 644.849,-136.5 638.849,-142.5 632.849,-142.5 632.849,-142.5 512.162,-142.5 512.162,-142.5 506.162,-142.5 500.162,-136.5 500.162,-130.5 500.162,-130.5 500.162,-26.5 500.162,-26.5 500.162,-20.5 506.162,-14.5 512.162,-14.5"/>
<text text-anchor="middle" x="572.505" y="-127.3" font-family="Times,serif" font-size="14.00">OauthTable</text>
<polyline fill="none" stroke="black" points="500.162,-120.5 644.849,-120.5 "/>
<text text-anchor="start" x="508.162" y="-105.3" font-family="Times,serif" font-size="14.00">id :integer</text>
<text text-anchor="start" x="508.162" y="-91.3" font-family="Times,serif" font-size="14.00">user_id :integer</text>
<text text-anchor="start" x="508.162" y="-77.3" font-family="Times,serif" font-size="14.00">token :string</text>
<text text-anchor="start" x="508.162" y="-63.3" font-family="Times,serif" font-size="14.00">secret :string</text>
<text text-anchor="start" x="508.162" y="-49.3" font-family="Times,serif" font-size="14.00">created_at :datetime</text>
<text text-anchor="start" x="508.162" y="-35.3" font-family="Times,serif" font-size="14.00">updated_at :datetime</text>
<text text-anchor="start" x="508.162" y="-21.3" font-family="Times,serif" font-size="14.00">website_service :string</text>
</g>
<!-- OauthTable&#45;&gt;User -->
<g id="edge6" class="edge"><title>OauthTable&#45;&gt;User</title>
<path fill="none" stroke="#30e057" d="M567.941,-150.641C565.239,-163.487 562.014,-176.702 558.505,-189 557.518,-192.46 556.487,-195.958 555.419,-199.479"/>
<ellipse fill="none" stroke="#30e057" cx="568.758" cy="-146.621" rx="4.00001" ry="4.00001"/>
<ellipse fill="#30e057" stroke="#30e057" cx="554.206" cy="-203.397" rx="4.00001" ry="4.00001"/>
</g>
<!-- Project -->
<g id="node10" class="node"><title>Project</title>
<path fill="none" stroke="black" d="M381.214,-1013.5C381.214,-1013.5 505.797,-1013.5 505.797,-1013.5 511.797,-1013.5 517.797,-1019.5 517.797,-1025.5 517.797,-1025.5 517.797,-1115.5 517.797,-1115.5 517.797,-1121.5 511.797,-1127.5 505.797,-1127.5 505.797,-1127.5 381.214,-1127.5 381.214,-1127.5 375.214,-1127.5 369.214,-1121.5 369.214,-1115.5 369.214,-1115.5 369.214,-1025.5 369.214,-1025.5 369.214,-1019.5 375.214,-1013.5 381.214,-1013.5"/>
<text text-anchor="middle" x="443.505" y="-1112.3" font-family="Times,serif" font-size="14.00">Project</text>
<polyline fill="none" stroke="black" points="369.214,-1105.5 517.797,-1105.5 "/>
<text text-anchor="start" x="377.214" y="-1090.3" font-family="Times,serif" font-size="14.00">id :integer</text>
<text text-anchor="start" x="377.214" y="-1076.3" font-family="Times,serif" font-size="14.00">name :string</text>
<text text-anchor="start" x="377.214" y="-1062.3" font-family="Times,serif" font-size="14.00">created_at :datetime</text>
<text text-anchor="start" x="377.214" y="-1048.3" font-family="Times,serif" font-size="14.00">updated_at :datetime</text>
<text text-anchor="start" x="377.214" y="-1034.3" font-family="Times,serif" font-size="14.00">trello_project_id :string</text>
<text text-anchor="start" x="377.214" y="-1020.3" font-family="Times,serif" font-size="14.00">no_of_goals :integer</text>
</g>
<!-- Project&#45;&gt;Goal -->
<g id="edge7" class="edge"><title>Project&#45;&gt;Goal</title>
<path fill="none" stroke="#5a22a0" d="M407.862,-1006.01C401.387,-994.477 394.591,-982.37 387.989,-970.611"/>
<ellipse fill="none" stroke="#5a22a0" cx="409.847" cy="-1009.55" rx="4.00002" ry="4.00002"/>
<polygon fill="#5a22a0" stroke="#5a22a0" points="387.882,-970.42 386.91,-959.498 385.434,-966.061 382.986,-961.701 382.986,-961.701 382.986,-961.701 385.434,-966.061 379.062,-963.904 387.882,-970.42 387.882,-970.42"/>
</g>
<!-- Project&#45;&gt;Task -->
<g id="edge8" class="edge"><title>Project&#45;&gt;Task</title>
<path fill="none" stroke="#6a7d64" d="M443.552,-1005.19C442.336,-957.169 437.981,-890.232 424.505,-833 422.357,-823.875 419.843,-814.615 417.062,-805.342"/>
<ellipse fill="none" stroke="#6a7d64" cx="443.644" cy="-1009.34" rx="4" ry="4"/>
<polygon fill="#6a7d64" stroke="#6a7d64" points="417.028,-805.233 418.369,-794.35 415.549,-800.457 414.07,-795.681 414.07,-795.681 414.07,-795.681 415.549,-800.457 409.771,-797.012 417.028,-805.233 417.028,-805.233"/>
</g>
<!-- Project&#45;&gt;User -->
<g id="edge9" class="edge"><title>Project&#45;&gt;User</title>
<path fill="none" stroke="#3161bc" d="M454.63,-1003.52C455.704,-995.939 456.694,-988.31 457.505,-981 477.605,-799.982 489.008,-589.563 494.72,-457.701"/>
<polygon fill="#3161bc" stroke="#3161bc" points="454.629,-1003.53 448.726,-1012.77 453.903,-1008.48 453.178,-1013.43 453.178,-1013.43 453.178,-1013.43 453.903,-1008.48 457.63,-1014.08 454.629,-1003.53 454.629,-1003.53"/>
<polygon fill="#3161bc" stroke="#3161bc" points="494.727,-457.548 499.651,-447.75 494.941,-452.552 495.155,-447.557 495.155,-447.557 495.155,-447.557 494.941,-452.552 490.659,-447.364 494.727,-457.548 494.727,-457.548"/>
</g>
<!-- Task&#45;&gt;Checklist -->
<g id="edge12" class="edge"><title>Task&#45;&gt;Checklist</title>
<path fill="none" stroke="#8160e6" d="M272.031,-577.247C231.246,-541.652 181.42,-494.868 142.505,-448 126.701,-428.965 111.579,-406.432 99.0444,-386.09"/>
<ellipse fill="none" stroke="#8160e6" cx="275.218" cy="-580.015" rx="4.00002" ry="4.00002"/>
<polygon fill="#8160e6" stroke="#8160e6" points="99.0312,-386.069 97.6818,-375.186 96.4339,-381.796 93.8365,-377.524 93.8365,-377.524 93.8365,-377.524 96.4339,-381.796 89.9913,-379.861 99.0312,-386.069 99.0312,-386.069"/>
</g>
<!-- Task&#45;&gt;Comment -->
<g id="edge11" class="edge"><title>Task&#45;&gt;Comment</title>
<path fill="none" stroke="#22648f" d="M349.687,-476.978C346.789,-394.531 337.027,-293.745 310.505,-207 306.292,-193.22 300.447,-179.269 293.902,-165.905"/>
<ellipse fill="none" stroke="#22648f" cx="349.832" cy="-481.408" rx="4" ry="4"/>
<polygon fill="#22648f" stroke="#22648f" points="293.787,-165.677 293.286,-154.723 291.529,-161.216 289.271,-156.755 289.271,-156.755 289.271,-156.755 291.529,-161.216 285.256,-158.787 293.787,-165.677 293.787,-165.677"/>
</g>
<!-- Task&#45;&gt;User -->
<g id="edge10" class="edge"><title>Task&#45;&gt;User</title>
<path fill="none" stroke="#ace3cb" d="M420.887,-489.358C426.241,-478.403 431.612,-467.413 436.895,-456.605"/>
<polygon fill="#ace3cb" stroke="#ace3cb" points="420.781,-489.575 412.347,-496.583 418.585,-494.067 416.39,-498.559 416.39,-498.559 416.39,-498.559 418.585,-494.067 420.433,-500.535 420.781,-489.575 420.781,-489.575"/>
<polygon fill="#ace3cb" stroke="#ace3cb" points="436.918,-456.558 445.352,-449.55 439.113,-452.066 441.309,-447.574 441.309,-447.574 441.309,-447.574 439.113,-452.066 437.266,-445.598 436.918,-456.558 436.918,-456.558"/>
</g>
<!-- TimeRecord -->
<g id="node12" class="node"><title>TimeRecord</title>
<path fill="none" stroke="black" d="M548,-999.5C548,-999.5 657.011,-999.5 657.011,-999.5 663.011,-999.5 669.011,-1005.5 669.011,-1011.5 669.011,-1011.5 669.011,-1129.5 669.011,-1129.5 669.011,-1135.5 663.011,-1141.5 657.011,-1141.5 657.011,-1141.5 548,-1141.5 548,-1141.5 542,-1141.5 536,-1135.5 536,-1129.5 536,-1129.5 536,-1011.5 536,-1011.5 536,-1005.5 542,-999.5 548,-999.5"/>
<text text-anchor="middle" x="602.505" y="-1126.3" font-family="Times,serif" font-size="14.00">TimeRecord</text>
<polyline fill="none" stroke="black" points="536,-1119.5 669.011,-1119.5 "/>
<text text-anchor="start" x="544" y="-1104.3" font-family="Times,serif" font-size="14.00">id :integer</text>
<text text-anchor="start" x="544" y="-1090.3" font-family="Times,serif" font-size="14.00">user_id :integer</text>
<text text-anchor="start" x="544" y="-1076.3" font-family="Times,serif" font-size="14.00">task_id :integer</text>
<text text-anchor="start" x="544" y="-1062.3" font-family="Times,serif" font-size="14.00">created_at :datetime</text>
<text text-anchor="start" x="544" y="-1048.3" font-family="Times,serif" font-size="14.00">updated_at :datetime</text>
<text text-anchor="start" x="544" y="-1034.3" font-family="Times,serif" font-size="14.00">state :string</text>
<text text-anchor="start" x="544" y="-1020.3" font-family="Times,serif" font-size="14.00">hours :integer</text>
<text text-anchor="start" x="544" y="-1006.3" font-family="Times,serif" font-size="14.00">minutes :integer</text>
</g>
<!-- Trello -->
<g id="node13" class="node"><title>Trello</title>
<path fill="none" stroke="black" d="M699,-1034.5C699,-1034.5 808.011,-1034.5 808.011,-1034.5 814.011,-1034.5 820.011,-1040.5 820.011,-1046.5 820.011,-1046.5 820.011,-1094.5 820.011,-1094.5 820.011,-1100.5 814.011,-1106.5 808.011,-1106.5 808.011,-1106.5 699,-1106.5 699,-1106.5 693,-1106.5 687,-1100.5 687,-1094.5 687,-1094.5 687,-1046.5 687,-1046.5 687,-1040.5 693,-1034.5 699,-1034.5"/>
<text text-anchor="middle" x="753.505" y="-1091.3" font-family="Times,serif" font-size="14.00">Trello</text>
<polyline fill="none" stroke="black" points="687,-1084.5 820.011,-1084.5 "/>
<text text-anchor="start" x="695" y="-1069.3" font-family="Times,serif" font-size="14.00">id :integer</text>
<text text-anchor="start" x="695" y="-1055.3" font-family="Times,serif" font-size="14.00">created_at :datetime</text>
<text text-anchor="start" x="695" y="-1041.3" font-family="Times,serif" font-size="14.00">updated_at :datetime</text>
</g>
<!-- User&#45;&gt;Comment -->
<g id="edge13" class="edge"><title>User&#45;&gt;Comment</title>
<path fill="none" stroke="#7083bf" d="M390.747,-222.766C373.935,-206.761 356.761,-190.43 340.505,-175 336.567,-171.262 332.541,-167.443 328.473,-163.587"/>
<ellipse fill="none" stroke="#7083bf" cx="394.026" cy="-225.888" rx="4.00002" ry="4.00002"/>
<polygon fill="#7083bf" stroke="#7083bf" points="328.373,-163.493 324.21,-153.348 324.744,-160.054 321.115,-156.615 321.115,-156.615 321.115,-156.615 324.744,-160.054 318.019,-159.881 328.373,-163.493 328.373,-163.493"/>
</g>
<!-- User&#45;&gt;Difficulty -->
<g id="edge16" class="edge"><title>User&#45;&gt;Difficulty</title>
<path fill="none" stroke="#704a3c" d="M607.522,-211.5C624.873,-193.027 642.462,-174.3 658.729,-156.982"/>
<ellipse fill="none" stroke="#704a3c" cx="604.678" cy="-214.528" rx="4.00002" ry="4.00002"/>
<polygon fill="#704a3c" stroke="#704a3c" points="658.769,-156.939 668.895,-152.731 662.192,-153.295 665.615,-149.651 665.615,-149.651 665.615,-149.651 662.192,-153.295 662.335,-146.57 658.769,-156.939 658.769,-156.939"/>
</g>
<!-- User&#45;&gt;Importance -->
<g id="edge15" class="edge"><title>User&#45;&gt;Importance</title>
<path fill="none" stroke="#261180" d="M609.374,-274.499C670.222,-243.698 745.972,-201.969 808.505,-157 809.009,-156.638 809.512,-156.273 810.016,-155.906"/>
<ellipse fill="none" stroke="#261180" cx="605.601" cy="-276.401" rx="4.00002" ry="4.00002"/>
<polygon fill="#261180" stroke="#261180" points="810.195,-155.771 820.888,-153.34 814.186,-152.759 818.178,-149.748 818.178,-149.748 818.178,-149.748 814.186,-152.759 815.467,-146.156 810.195,-155.771 810.195,-155.771"/>
</g>
<!-- User&#45;&gt;Invitation -->
<g id="edge17" class="edge"><title>User&#45;&gt;Invitation</title>
<path fill="none" stroke="#2b4430" d="M393.196,-208.226C390.019,-201.931 387.202,-195.512 384.843,-189 380.687,-177.526 380.09,-165.128 381.561,-152.941"/>
<ellipse fill="none" stroke="#2b4430" cx="395.21" cy="-212.022" rx="4.00002" ry="4.00002"/>
<polygon fill="#2b4430" stroke="#2b4430" points="381.611,-152.643 387.691,-143.517 382.431,-147.711 383.251,-142.778 383.251,-142.778 383.251,-142.778 382.431,-147.711 378.812,-142.04 381.611,-152.643 381.611,-152.643"/>
<text text-anchor="middle" x="429.836" y="-177.8" font-family="Times,serif" font-size="14.00">sent_invitations</text>
</g>
<!-- User&#45;&gt;OauthTable -->
<g id="edge14" class="edge"><title>User&#45;&gt;OauthTable</title>
<path fill="none" stroke="#876f56" d="M537.422,-199.479C538.487,-195.958 539.518,-192.46 540.505,-189 543.848,-177.282 546.934,-164.732 549.82,-152.461"/>
<ellipse fill="none" stroke="#876f56" cx="536.216" cy="-203.396" rx="4.00001" ry="4.00001"/>
<polygon fill="#876f56" stroke="#876f56" points="549.825,-152.44 556.476,-143.722 550.959,-147.571 552.093,-142.701 552.093,-142.701 552.093,-142.701 550.959,-147.571 547.71,-141.68 549.825,-152.44 549.825,-152.44"/>
</g>
</g>
</svg>
